<?xml version="1.0" encoding="UTF-8" standalone="no"?>
<svg width="33px" height="33px" viewBox="0 0 33 33" version="1.1" xmlns="http://www.w3.org/2000/svg" xmlns:xlink="http://www.w3.org/1999/xlink">
    <!-- Generator: Sketch 41.2 (35397) - http://www.bohemiancoding.com/sketch -->
    <title>add-note-detail</title>
    <desc>Created with Sketch.</desc>
    <defs></defs>
    <g id="Page-1" stroke="none" stroke-width="1" fill="none" fill-rule="evenodd">
        <g id="Notes-Detail" transform="translate(-361.000000, -738.000000)" fill="#4A586A">
            <g id="Group-7" transform="translate(361.000000, 738.000000)">
                <g id="add-note-detail">
                    <path d="M24.6464844,15.8964844 L17,15.8964844 L17,8.25 C17,8.12695251 16.9560551,8.02148481 16.8681641,7.93359375 C16.780273,7.84570269 16.6748053,7.80175781 16.5517578,7.80175781 C16.4287103,7.80175781 16.3232426,7.84570269 16.2353516,7.93359375 C16.1474605,8.02148481 16.1035156,8.12695251 16.1035156,8.25 L16.1035156,15.8964844 L8.44824219,15.8964844 C8.3251947,15.8964844 8.219727,15.9404292 8.13183594,16.0283203 C8.04394487,16.1162114 8,16.2246087 8,16.3535156 C8,16.4765631 8.04394487,16.5820308 8.13183594,16.6699219 C8.219727,16.7578129 8.3251947,16.8017578 8.44824219,16.8017578 L16.1035156,16.8017578 L16.1035156,24.4482422 C16.1035156,24.5712897 16.1474605,24.6767574 16.2353516,24.7646484 C16.3232426,24.8525395 16.4287103,24.8964844 16.5517578,24.8964844 C16.6748053,24.8964844 16.780273,24.8525395 16.8681641,24.7646484 C16.9560551,24.6767574 17,24.5712897 17,24.4482422 L17,16.8017578 L24.6464844,16.8017578 C24.7753913,16.8017578 24.8837886,16.7578129 24.9716797,16.6699219 C25.0595708,16.5820308 25.1035156,16.4765631 25.1035156,16.3535156 C25.1035156,16.2246087 25.0595708,16.1162114 24.9716797,16.0283203 C24.8837886,15.9404292 24.7753913,15.8964844 24.6464844,15.8964844 Z" id="add"></path>
                    <path d="M16.5,32.5 C25.336556,32.5 32.5,25.336556 32.5,16.5 C32.5,7.663444 25.336556,0.5 16.5,0.5 C7.663444,0.5 0.5,7.663444 0.5,16.5 C0.5,25.336556 7.663444,32.5 16.5,32.5 Z M16.5,31.5 C8.21572875,31.5 1.5,24.7842712 1.5,16.5 C1.5,8.21572875 8.21572875,1.5 16.5,1.5 C24.7842712,1.5 31.5,8.21572875 31.5,16.5 C31.5,24.7842712 24.7842712,31.5 16.5,31.5 Z" id="Oval-3"></path>
                </g>
            </g>
        </g>
    </g>
</svg>