<?xml version="1.0" encoding="UTF-8" standalone="no"?>
<svg width="272px" height="60px" viewBox="0 0 272 60" version="1.1" xmlns="http://www.w3.org/2000/svg" xmlns:xlink="http://www.w3.org/1999/xlink">
    <!-- Generator: Sketch 41.2 (35397) - http://www.bohemiancoding.com/sketch -->
    <title>cloud-bg-welcome</title>
    <desc>Created with Sketch.</desc>
    <defs></defs>
    <g id="0.1" stroke="none" stroke-width="1" fill="none" fill-rule="evenodd" opacity="0.291103078">
        <g id="Welcome-Back" transform="translate(-592.000000, -257.000000)" fill="#6DB0F8">
            <g id="Graphic" transform="translate(538.000000, 191.000000)">
                <g id="cloud-bg-welcome" transform="translate(54.000000, 66.000000)">
                    <path d="M16.1165425,58.6552269 C16.6322234,58.9246155 17.1588454,59.2221024 17.6965387,59.5487909 C18.1550287,59.8273575 18.7516479,59.6944991 19.0486104,59.2477042 C26.8008589,47.584062 34.7293179,43.7594546 47.2410359,45.7411161 C47.7865211,45.8275125 48.2987623,45.4553474 48.3851587,44.9098622 C48.4715551,44.364377 48.09939,43.8521358 47.5539048,43.7657394 C34.5274938,41.7025586 25.9303901,45.6697168 17.9123031,57.3566402 C17.7355885,57.6142142 17.5591551,57.8755379 17.3829617,58.1406296 L18.7350335,57.8395429 C18.4586841,57.6716402 18.1844371,57.5107093 17.9123031,57.3566402 C11.6364874,53.8035762 6.48444387,53.8998079 2.58661197,56.2948159 C1.54635713,56.9339966 0.842811139,57.5846278 0.466206425,58.0505776 C0.119040038,58.4801052 0.185806979,59.1097401 0.615334561,59.4569064 C1.04486214,59.8040728 1.67449701,59.7373059 2.0216634,59.3077783 C2.06979735,59.2482251 2.1922492,59.1158855 2.38839039,58.9344964 C2.73050569,58.6181121 3.14581119,58.2985946 3.63364675,57.9988459 C6.75276739,56.082314 10.8679576,55.9133988 16.1165425,58.6552269 Z" id="Path-7"></path>
                    <path d="M234.303996,51.2689552 C231.087694,44.8154166 228.536972,42.7386322 221.542694,41.8186652 C220.995126,41.7466427 220.492848,42.1321489 220.420826,42.6797174 C220.348803,43.2272859 220.73431,43.7295635 221.281878,43.801586 C227.889337,44.6706743 229.81729,46.4650158 233.046768,53.2568538 C233.331769,53.8562316 234.110872,54.016785 234.609622,53.5789185 C238.803554,49.896953 246.08046,49.0382808 252.433678,52.2006782 C252.807779,52.3868917 253.258223,52.3208507 253.563126,52.0350865 C253.653209,51.9506571 253.743506,51.867633 253.834014,51.7860068 C258.547199,47.5353066 263.495522,47.1911418 268.115466,49.140488 C268.686369,49.3813757 269.19659,49.638829 269.637546,49.8947522 C269.894984,50.0441646 270.067059,50.1560369 270.145393,50.2120091 C270.594751,50.5330936 271.219319,50.4291069 271.540403,49.9797482 C271.861488,49.5303896 271.757501,48.905822 271.308142,48.5847375 C270.839157,48.2496292 270.014569,47.7710521 268.892971,47.2978036 C263.684025,45.099933 257.999211,45.4619152 252.704355,50.1140291 C246.260193,47.167958 239.03951,47.8530183 234.303996,51.2689552 Z" id="Path-8"></path>
                    <path d="M238.858687,16.1462844 C236.432129,14.8175942 233.658698,14.4518653 230.74405,15.6550304 C229.443078,16.192071 228.288593,16.8312048 227.273209,17.5519091 C225.974235,18.4739014 225.034137,19.407302 224.398741,20.2273919 C223.887531,19.7251861 223.233331,19.17061 222.436834,18.6184389 C219.286315,16.4343419 215.459152,15.4480084 211.030826,16.3105791 C208.795739,12.5023015 206.749115,11.0257049 202.622173,10.445701 C200.646794,9.99036126 199.121903,10.1333878 198.06713,10.7261175 C197.511,10.1569745 196.742259,9.50477647 195.753412,8.85777701 C192.941919,7.01822489 189.452644,6.02405303 185.287911,6.31403689 C177.774886,6.83715705 172.902084,10.096025 170.485531,15.0783993 C170.226048,14.9502488 169.942609,14.8116498 169.770025,14.7391693 C168.701512,14.2904235 167.415806,14.0231484 165.624884,13.9572008 C163.80495,13.8901849 162.378908,14.1139749 161.302011,14.5483602 C161.20744,14.208294 161.091947,13.8310602 160.953039,13.422247 C160.318945,11.5560748 159.401295,9.69061627 158.144659,7.94557202 C155.181646,3.83094382 150.82466,1.03988223 144.871637,0.203239468 C138.316838,-0.717977479 133.172637,1.60375862 129.435572,6.17773931 C126.947417,9.22311676 125.237743,13.2574373 124.90976,15.5911542 C124.832897,16.1380641 125.213945,16.6437322 125.760855,16.7205954 C126.307765,16.7974585 126.813433,16.4164103 126.890296,15.8695004 C127.168418,13.8905649 128.732929,10.1987862 130.984363,7.4431431 C134.301156,3.38355469 138.772133,1.36566519 144.593291,2.18377561 C149.986016,2.94167366 153.86695,5.42777866 156.521681,9.11430642 C157.654405,10.687279 158.485527,12.3768386 159.059369,14.0656845 C159.259629,14.6550595 159.413081,15.2006283 159.525583,15.6874052 C159.591389,15.9721351 159.628264,16.1686461 159.642224,16.2619472 C159.769619,17.1134249 160.841876,17.4166158 161.396286,16.7579248 C161.421102,16.7284403 161.587,16.6033192 161.946748,16.4465212 C162.752393,16.0953758 163.930486,15.896163 165.551287,15.9558462 C167.10888,16.0132019 168.157592,16.2312102 168.995604,16.583152 C169.212598,16.6742831 170.160995,17.1683136 170.460461,17.2646067 C170.594309,17.3076455 170.728016,17.3391412 170.865099,17.3584069 C171.317951,17.4220512 171.75628,17.1703919 171.929635,16.7472208 C173.892326,11.9561689 178.226381,8.81056238 185.426831,8.30920633 C189.139317,8.05071175 192.199762,8.92270037 194.658385,10.5313704 C195.410735,11.0236312 196.047491,11.5493622 196.569784,12.0717963 C196.874176,12.3762712 197.067223,12.6037351 197.150098,12.7164263 C197.583353,13.3055547 198.481753,13.2456015 198.832885,12.6041284 C198.818175,12.6310024 198.861033,12.5834622 198.991174,12.5026179 C199.564271,12.1466057 200.599053,12.030929 202.260056,12.4108003 C206.020809,12.9430032 207.550005,14.1500383 209.651827,17.9288215 C209.869575,18.3203019 210.321104,18.5192108 210.756931,18.4156453 C214.90898,17.4289947 218.415399,18.264174 221.297368,20.2620983 C222.010145,20.7562305 222.625508,21.2851385 223.140118,21.811622 C223.441845,22.1203105 223.637958,22.3525125 223.725614,22.4701821 C224.173105,23.0708982 225.097854,22.9844864 225.426304,22.3112635 C225.502444,22.1552002 225.701791,21.8333862 226.046604,21.3995927 C226.642541,20.6498704 227.429354,19.8936659 228.43082,19.1828405 C229.324001,18.5488738 230.34626,17.9829415 231.507185,17.5037124 C233.80333,16.5558652 235.962386,16.8405773 237.898135,17.9005192 C238.286382,18.1131088 238.630982,18.3404283 238.926164,18.5659271 C239.096434,18.6960008 239.207349,18.7915153 239.253528,18.8354794 C239.826653,19.3811079 240.776423,19.0764417 240.925212,18.2992386 C240.933339,18.2567856 240.962869,18.1413969 241.021507,17.9634918 C241.126344,17.6454217 241.275728,17.2851381 241.477346,16.8927474 C242.065717,15.747659 242.95648,14.5934113 244.215557,13.5066713 C245.982798,11.9813227 248.32816,10.7214263 251.33981,9.82701456 C255.92887,8.46413718 260.191093,9.42167004 263.973512,11.8681045 C264.877748,12.4529561 265.679857,13.0796617 266.368832,13.7046364 C266.776272,14.0742286 267.050779,14.3555908 267.182007,14.5046185 C267.546992,14.9191111 268.178884,14.9592446 268.593376,14.5942592 C269.007869,14.2292737 269.048002,13.597382 268.683017,13.1828894 C268.504362,12.9800019 268.178022,12.6455124 267.712568,12.2232951 C266.946719,11.5285875 266.059792,10.8356108 265.059698,10.188759 C260.824845,7.44969467 255.982576,6.36185124 250.770421,7.90977785 C247.491863,8.88345702 244.894432,10.2787619 242.908762,11.9926417 C241.450176,13.2515823 240.401415,14.6105639 239.698435,15.9787048 C239.606249,16.158117 239.523581,16.3299886 239.449772,16.4934972 C239.26796,16.3789161 239.070764,16.2624098 238.858687,16.1462844 Z" id="Path-2"></path>
                </g>
            </g>
        </g>
    </g>
</svg>