<?xml version="1.0" encoding="UTF-8" standalone="no"?>
<svg width="366px" height="71px" viewBox="0 0 366 71" version="1.1" xmlns="http://www.w3.org/2000/svg" xmlns:xlink="http://www.w3.org/1999/xlink">
    <!-- Generator: Sketch 41.2 (35397) - http://www.bohemiancoding.com/sketch -->
    <title>clouds-welcome</title>
    <desc>Created with Sketch.</desc>
    <defs></defs>
    <g id="0.1" stroke="none" stroke-width="1" fill="none" fill-rule="evenodd">
        <g id="Welcome-Back" transform="translate(-540.000000, -319.000000)">
            <g id="Graphic" transform="translate(538.000000, 191.000000)">
                <g id="clouds-welcome" transform="translate(0.000000, 103.000000)">
                    <path d="M3,30 C3,30 15.5,22.5 23,30 C30.5,37.5 35.5,40 35.5,43.5 C35.5,47 37,49.5 37,49.5 C37,49.5 41,48.5 44,48.5 C47,48.5 51.5,52.5 51.5,52.5 C51.5,52.5 63.5,39 73,40.5 C82.5,42 91.5,49 91.5,49 C91.5,49 98.5,48.5 102.5,50.5 C106.5,52.5 110,58.5 110,58.5 C110,58.5 119.5,58.5 121.5,60 C123.5,61.5 129,65.5 129,65.5 C129,65.5 134,56 141,58 C148,60 150.5,62.5 150.5,62.5 C150.5,62.5 161.5,51.5 168.5,50.5 C175.5,49.5 184,25 200,28 C216,31 223,47 223,47 C223,47 229,46 233,46.5 C237,47 238,49 238,49 C238,49 252.5,30 263.5,33 C274.5,36 277.5,39 277.5,39 C277.5,39 288,38.5 289.5,39.5 C291,40.5 296,45.5 296,45.5 C296,45.5 304,45 307.5,46 C311,47 316.5,51 316.5,51 C316.5,51 322,41.5 329.5,42.5 C337,43.5 339,45 339,45 C339,45 344,30 354.5,30 C365,30 367.5,29.5 367.5,29.5 L367.5,95.1165373 L2.46724295,95.1165373 L3,30 Z" id="Path-6" fill="#FFFFFF"></path>
                    <path d="M174,49.7099302 C174,49.7099302 181.751532,51.2922866 184.766017,54.4569995 C187.780501,57.6217123 182.182173,51.2922866 185.627298,42.3256002 C189.072423,33.3589138 195.532033,29.1392966 196.823955,29.1392966 C198.115877,29.1392966 192.086908,25.9745838 185.627298,30.1942009 C179.167688,34.4138181 174,49.7099302 174,49.7099302 Z" id="Path-5" fill="#E2F0FE"></path>
                    <path d="M176.610821,49.9383842 C177.653558,49.9516647 178.703466,50.0305464 179.756617,50.1785572 C184.717731,50.8757962 189.049776,53.0249217 192.74491,56.1604065 C194.336926,57.5113023 195.703825,58.957358 196.84805,60.4061565 C197.542282,61.2851821 198.014213,61.9805134 198.264601,62.4010374 C198.688422,63.1128427 198.454965,64.0334502 197.74316,64.4572718 C197.031355,64.8810935 196.110747,64.6476367 195.686926,63.9358314 C195.647181,63.8690804 195.554044,63.7222429 195.40785,63.5068445 C195.155551,63.1351133 194.850708,62.7175058 194.493746,62.2655262 C193.466967,60.9654352 192.23545,59.6626013 190.803899,58.4478668 C187.515628,55.6576235 183.69312,53.7612793 179.339098,53.1493614 C169.409178,51.7538022 159.68212,57.380685 154.525854,66.2570137 C154.117236,66.9604341 153.222398,67.2099409 152.508763,66.819437 C151.745382,66.4017123 150.992437,66.0375947 150.250892,65.725324 C145.708713,63.812575 141.594257,63.8450816 138.129206,65.4183228 C135.082039,66.8018311 132.829382,69.3938735 132.584092,71.1392046 C132.414747,72.3441572 132.166182,72.9716351 131.09648,73.2053012 C130.498603,73.3359016 130.031055,73.1593579 129.604325,72.8406803 C129.413386,72.6980885 129.239684,72.5309211 129.018634,72.2932943 C129.024857,72.2999841 128.156463,71.3295598 127.832047,70.9935786 C127.270573,70.4120894 126.696444,69.8935335 126.046542,69.4033493 C122.603406,66.8063867 117.822548,65.5790062 110.898585,66.4257231 C110.311728,66.4974886 109.737459,66.2178338 109.432085,65.7115746 C107.752713,62.9274522 105.78115,60.9938957 103.578097,59.7838819 C100.40836,58.0429231 97.0086562,57.8855546 93.8641543,58.6722792 C93.2214775,58.8330709 92.769474,58.9887702 92.553851,59.0802869 C91.7748152,59.4109327 90.8766479,59.0320214 90.569845,58.2432911 C90.5725798,58.2503218 90.5516743,58.2058469 90.5014669,58.1166221 C90.3974042,57.9316894 90.2526062,57.7154478 90.0611124,57.4743738 C89.4775377,56.739704 88.6347734,55.9863064 87.4797145,55.2666623 C85.2437212,53.8735562 82.1668791,52.811416 78.1083901,52.2410326 C68.4038716,50.8771515 58.8985357,56.5336876 53.9358971,64.998953 C53.4742416,65.7864446 52.4221359,65.9824677 51.7078578,65.4140703 C51.1699661,64.986035 50.6188622,64.6134583 50.0553356,64.2936687 C46.7676084,62.4279522 43.2373452,62.3991283 39.9071137,63.4865944 C39.4332535,63.6413305 39.0093358,63.8062489 38.6433933,63.9694317 C38.4340326,64.0627908 38.2976018,64.1307247 38.2419537,64.1610902 C37.2719041,64.6904177 36.0819263,64.0246948 36.0254187,62.9210686 C36.0189274,62.7942895 35.9912967,62.514824 35.9284477,62.1049773 C35.8200649,61.3981984 35.6484655,60.604515 35.3999127,59.7460799 C34.6858761,57.279988 33.5002581,54.8110501 31.7349941,52.5071947 C29.651472,49.7879791 26.8880766,47.4764973 23.3423184,45.6974722 C16.6905904,42.3600787 11.0487518,42.4784285 6.49576733,44.6375397 C5.80595725,44.9646607 5.20824741,45.3129324 4.7071908,45.6574098 C4.42083239,45.8542818 4.23935525,45.9974443 4.16733362,46.0613246 C3.54756624,46.6110336 2.59951838,46.5542399 2.04980947,45.9344726 C1.50010056,45.3147052 1.55689417,44.3666573 2.17666156,43.8169484 C2.74378547,43.3139321 3.76292612,42.6132709 5.2103247,41.9268872 C10.5681628,39.3860992 17.1765573,39.2474738 24.6876761,43.0160523 C28.644355,45.00125 31.7601287,47.6074837 34.1163247,50.6825675 C36.1221357,53.3003619 37.4687791,56.1046203 38.2815531,58.9117246 C38.4722084,59.5701972 38.6199215,60.1750835 38.9758747,60.6347891 C43.0381561,59.3082767 47.4115484,59.3439845 51.5359776,61.6845119 C51.7638796,61.8138415 51.9897706,61.9498731 52.2135856,62.0926675 C57.9424218,53.4314415 68.054027,47.7985013 78.5259094,49.2702284 C82.9845249,49.8968459 86.4595623,51.096445 89.066115,52.7204232 C90.5134056,53.6221385 91.6138723,54.6059116 92.4101951,55.6084127 C92.4884541,55.7069341 92.5618148,55.8029687 92.6304552,55.8962897 C92.7885175,55.8517205 92.95719,55.8067252 93.1360255,55.7619823 C96.9512938,54.8074382 101.098799,54.9994216 105.022326,57.1543951 C107.466595,58.4968947 109.642785,60.5396391 111.485022,63.342616 C118.680078,62.6301727 123.949453,64.0639814 127.85304,67.0082367 C128.637043,67.5995662 129.325772,68.2216286 129.990184,68.9097255 C130.026547,68.9473852 130.067897,68.9909077 130.112873,69.0387463 C131.180732,66.6253405 133.720377,64.12533 136.888961,62.6866943 C141.460431,60.6111049 146.896642,60.7357985 152.676985,63.5320413 C157.416201,56.167883 165.082125,51.036116 173.497864,50.092957 C173.501776,50.0747805 173.505743,50.0564218 173.509765,50.0378821 C173.692533,49.195478 173.931163,48.2602951 174.232497,47.2550046 C175.093046,44.384099 176.286722,41.5122874 177.873151,38.8211826 C182.465514,31.0310277 189.371315,26.2971024 198.919681,26.2971024 C208.348059,26.2971024 215.231021,29.7456314 219.871049,35.4833956 C221.494328,37.4907082 222.720728,39.6376315 223.60823,41.7868629 C223.767822,42.1733428 223.907231,42.5357715 224.02788,42.8706642 C224.342036,42.7269982 224.686202,42.5801476 225.058771,42.4339582 C229.184646,40.8150385 233.691796,40.5064413 238.202783,42.2904103 C243.0495,32.1293119 251.920544,25.6040588 262.807093,25.6040588 C268.122117,25.6040588 272.046591,26.49633 274.78592,28.0215591 C275.756348,28.5618829 276.522966,29.1536632 277.106349,29.7632263 C277.397992,29.6657153 277.727327,29.5645762 278.091515,29.4641975 C282.195527,28.3330351 286.613984,28.4090989 290.794007,30.5343009 C292.780451,31.5442464 294.60974,32.9870363 296.248522,34.8924729 C302.391959,32.448498 312.202764,34.1861195 316.84868,37.8567143 C319.026734,34.4256427 320.867028,32.3958667 323.492477,30.875303 C327.114521,28.7775488 331.635847,28.3317431 337.449321,29.7086964 C342.698309,17.8113726 351.110321,13.2122223 362.932789,13.4052184 C363.761106,13.4187403 364.421627,14.1011853 364.408106,14.9295021 C364.394584,15.7578189 363.712139,16.4183406 362.883822,16.4048188 C351.839833,16.2245309 344.425655,20.4751677 339.716708,32.0462008 C339.430567,32.7493195 338.664248,33.1278327 337.931979,32.9277443 C332.222718,31.3677199 328.123317,31.6601155 324.996006,33.4713388 C322.546825,34.8898145 320.833647,36.9811679 318.435244,41.0068896 C317.895667,41.9125694 316.614781,41.9937408 315.965192,41.1634199 C315.599623,40.6961412 315.106489,40.2523039 314.51279,39.8389667 C310.356207,36.9451286 301.27028,35.5462918 296.520497,38.0648033 C295.874174,38.4075083 295.074903,38.2339863 294.628867,37.6541298 C293.072487,35.6307979 291.330871,34.1727253 289.434385,33.2085166 C286.015002,31.4700378 282.334226,31.4066732 278.888661,32.3563521 C278.418521,32.4859336 277.998601,32.6239713 277.636452,32.7605612 C277.429037,32.8387911 277.293671,32.8958524 277.237791,32.9216874 C276.499878,33.2628447 275.624503,32.9540763 275.26393,32.2254539 C275.120245,31.9351043 274.555527,31.3269541 273.326521,30.642657 C271.063847,29.3828246 267.638604,28.6040588 262.807093,28.6040588 C252.734992,28.6040588 244.576697,34.9379065 240.3349,44.8555499 C239.99627,45.6472939 239.06205,45.9920181 238.290304,45.6099993 C234.159124,43.565039 229.989092,43.7220695 226.154579,45.226664 C225.529651,45.4718746 224.971836,45.7335925 224.490866,45.993121 C224.213108,46.1429975 224.030266,46.2535038 223.95183,46.3056003 C223.071084,46.8905813 221.877767,46.4051667 221.655456,45.3714867 C221.634594,45.2744825 221.579998,45.0600813 221.48562,44.7453496 C221.322729,44.2021425 221.107919,43.5919827 220.835343,42.9318958 C220.052475,41.0360503 218.96818,39.1378967 217.538355,37.3698042 C213.455231,32.3206965 207.420402,29.2971024 198.919681,29.2971024 C190.538949,29.2971024 184.549963,33.4025514 180.457515,40.344687 C179.00426,42.8098839 177.901618,45.4626812 177.106175,48.1163846 C176.91359,48.7588757 176.749139,49.3687911 176.610821,49.9383842 Z" id="Combined-Shape" fill="#86C1FF" transform="translate(183.040145, 43.324050) rotate(4.000000) translate(-183.040145, -43.324050) "></path>
                    <path d="M246.382284,62.921028 C245.092407,62.1934298 251.97289,60.9131491 255.821191,61.541814 C259.669493,62.170479 260.716973,62.2176794 260.716973,62.2176794 C260.716973,62.2176794 269.283348,59.4547643 276.342523,64.4208321 C283.401697,69.3868998 281.75211,61 288.261054,61 C294.769998,61 302.571459,64.411297 302.571459,64.411297 C302.571459,64.411297 296.119359,65.0770665 290.872579,72.4689579 C290.872579,73.4544312 288.317346,71.7336388 288.317346,71.7336388 C288.317346,71.7336388 277.801709,69.4990766 275.434118,70.1373627 C273.066527,70.7756488 272.783961,70.1256539 271.84134,69.2062951 C270.898719,68.2869363 265.121023,64.6143371 260.716973,65.5027775 C256.312922,66.3912179 254.335514,62.921028 246.382284,62.921028 Z" id="Path-13" fill="#EAF4FF"></path>
                    <path d="M287.017584,73.3429334 C287.710474,73.7111666 288.290389,74.1297121 288.712549,74.5945493 C289.377624,75.3268597 290.557022,75.2261361 291.08829,74.3916551 C294.621228,68.8423393 297.415281,66.9033169 302.241692,66.9033169 C303.070119,66.9033169 303.741692,66.2317441 303.741692,65.4033169 C303.741692,64.5748898 303.070119,63.9033169 302.241692,63.9033169 C296.721947,63.9033169 293.18177,66.0593053 289.502642,71.3569569 C289.189083,71.8084562 288.874515,72.2827751 288.557626,72.7805238 L290.933367,72.5776295 C290.533054,72.1368474 290.050743,71.7296296 289.502642,71.3569569 C285.52962,68.6555648 278.099741,67.7692935 273.386259,69.0716654 C269.756373,64.8001797 263.094204,62.5071299 258.022522,64.9019926 C256.973079,64.026247 255.803665,63.3386607 254.537778,62.8245529 C251.82237,61.7217584 248.997269,61.4997529 246.479581,61.7707883 C246.13231,61.8081729 245.87495,61.8470636 245.720957,61.8762197 C244.906991,62.0303308 244.372072,62.8151126 244.526183,63.629079 C244.680295,64.4430454 245.465076,64.9779638 246.279043,64.8238527 C246.357087,64.8090763 246.535812,64.7820684 246.800683,64.7535544 C248.868196,64.5309814 251.222151,64.7159628 253.408946,65.6040741 C254.664722,66.1140758 255.784028,66.8343733 256.742436,67.7919462 C257.23826,68.2873376 258.011049,68.3733268 258.603642,67.9990449 C262.555833,65.5028412 268.822596,67.7278465 271.62675,71.6917865 C272.024926,72.2546469 272.755517,72.4735922 273.397625,72.2224867 C276.830618,70.8799647 283.43459,71.4387703 287.017584,73.3429334 Z" id="Path-5" fill="#6DB0F8" opacity="0.69478778"></path>
                </g>
            </g>
        </g>
    </g>
</svg>