<?xml version="1.0" encoding="UTF-8" standalone="no"?>
<svg width="10px" height="15px" viewBox="0 0 10 15" version="1.1" xmlns="http://www.w3.org/2000/svg" xmlns:xlink="http://www.w3.org/1999/xlink">
    <!-- Generator: Sketch 41.2 (35397) - http://www.bohemiancoding.com/sketch -->
    <title>design</title>
    <desc>Created with Sketch.</desc>
    <defs></defs>
    <g id="Landing" stroke="none" stroke-width="1" fill="none" fill-rule="evenodd">
        <g id="Doable-landing" transform="translate(-414.000000, -2960.000000)" fill="#4A586A">
            <g id="Group-20" transform="translate(-24.000000, 2586.000000)">
                <g id="Group-14" transform="translate(400.000000, 371.000000)">
                    <path d="M47.6289062,12.2421875 C47.1731748,11.6315074 46.7653013,10.9752639 46.4052734,10.2734375 C46.0452456,9.57161107 45.7353529,8.9016959 45.4755859,8.26367188 C45.215819,7.62564785 45.0096036,7.05827071 44.8569336,6.56152344 C44.7042636,6.06477616 44.6074221,5.71614684 44.5664062,5.515625 C44.6712245,5.4199214 44.7532549,5.30485093 44.8125,5.17041016 C44.8717451,5.03596938 44.9013672,4.89583406 44.9013672,4.75 C44.9013672,4.45833187 44.7988292,4.20996196 44.59375,4.00488281 C44.3886708,3.79980366 44.1403009,3.69726562 43.8486328,3.69726562 C43.7438146,3.69726562 43.6287441,3.70751943 43.503418,3.72802734 C43.3780918,3.74853526 43.2607427,3.79296841 43.1513672,3.86132812 C43.0419916,3.79296841 42.9235032,3.74853526 42.7958984,3.72802734 C42.6682936,3.70751943 42.5520839,3.69726562 42.4472656,3.69726562 C42.1601548,3.69726562 41.9140635,3.79980366 41.7089844,4.00488281 C41.5039052,4.20996196 41.4013672,4.45833187 41.4013672,4.75 C41.4013672,4.89583406 41.4309893,5.03596938 41.4902344,5.17041016 C41.5494795,5.30485093 41.6315099,5.4199214 41.7363281,5.515625 C41.690755,5.71614684 41.5916349,6.06477616 41.4389648,6.56152344 C41.2862948,7.05827071 41.0812187,7.62564785 40.8237305,8.26367188 C40.5662422,8.9016959 40.2574888,9.57161107 39.8974609,10.2734375 C39.5374331,10.9752639 39.1272809,11.6315074 38.6669922,12.2421875 C38.6168617,12.3105472 38.5952148,12.3880204 38.6020508,12.4746094 C38.6088868,12.5611983 38.6419268,12.6363929 38.7011719,12.7001953 C38.8287767,12.8278001 38.9939769,13.006672 39.1967773,13.2368164 C39.3995778,13.4669608 39.601236,13.7198879 39.8017578,13.9956055 C40.0022796,14.271323 40.1845695,14.5561509 40.3486328,14.8500977 C40.5126961,15.1440444 40.6197914,15.4208971 40.6699219,15.6806641 C40.5286451,15.7399092 40.3862312,15.8333327 40.2426758,15.9609375 C40.0991204,16.0885423 39.9544278,16.2480459 39.8085938,16.4394531 C39.667317,16.626303 39.5545252,16.7971997 39.4702148,16.9521484 C39.3859045,17.1070971 39.3414714,17.1868489 39.3369141,17.1914062 C39.3095702,17.246094 39.2970377,17.3041989 39.2993164,17.3657227 C39.3015951,17.4272464 39.3186847,17.4830727 39.3505859,17.5332031 C39.3824871,17.5833336 39.4246417,17.6232095 39.4770508,17.652832 C39.5294599,17.6824546 39.5875648,17.6972656 39.6513672,17.6972656 L46.6513672,17.6972656 C46.7106123,17.6972656 46.7664385,17.6824546 46.8188477,17.652832 C46.8712568,17.6232095 46.9134113,17.5833336 46.9453125,17.5332031 C46.9772137,17.4830727 46.9954427,17.4272464 47,17.3657227 C47.0045573,17.3041989 46.9931642,17.246094 46.9658203,17.1914062 C46.961263,17.1868489 46.9156905,17.1070971 46.8291016,16.9521484 C46.7425126,16.7971997 46.6308601,16.626303 46.4941406,16.4394531 C46.3483066,16.2480459 46.203614,16.0885423 46.0600586,15.9609375 C45.9165032,15.8333327 45.7718106,15.7399092 45.6259766,15.6806641 C45.6806643,15.4254545 45.7900382,15.1497411 45.9541016,14.8535156 C46.1181649,14.5572902 46.3004547,14.271323 46.5009766,13.9956055 C46.7014984,13.7198879 46.9020172,13.4669608 47.1025391,13.2368164 C47.3030609,13.006672 47.4671218,12.8278001 47.5947266,12.7001953 C47.658529,12.6363929 47.6938476,12.5611983 47.7006836,12.4746094 C47.7075196,12.3880204 47.683594,12.3105472 47.6289062,12.2421875 Z M43.1513672,12.0986328 C43.2470708,12.0986328 43.3291012,12.1328122 43.3974609,12.2011719 C43.4658207,12.2695316 43.5,12.351562 43.5,12.4472656 C43.5,12.5475265 43.4658207,12.6318356 43.3974609,12.7001953 C43.3291012,12.768555 43.2470708,12.8027344 43.1513672,12.8027344 C43.0556636,12.8027344 42.9736332,12.768555 42.9052734,12.7001953 C42.8369137,12.6318356 42.8027344,12.5475265 42.8027344,12.4472656 C42.8027344,12.351562 42.8369137,12.2695316 42.9052734,12.2011719 C42.9736332,12.1328122 43.0556636,12.0986328 43.1513672,12.0986328 Z M46.0361328,17 L40.2666016,17 C40.3942064,16.8131501 40.5297844,16.6502286 40.6733398,16.5112305 C40.8168952,16.3722324 40.9433588,16.3027344 41.0527344,16.3027344 L45.25,16.3027344 C45.3593755,16.3027344 45.4858391,16.3722324 45.6293945,16.5112305 C45.7729499,16.6502286 45.908528,16.8131501 46.0361328,17 Z M46.0224609,13.4658203 C45.8675122,13.6708995 45.7285162,13.8691397 45.6054688,14.0605469 C45.4824213,14.2519541 45.375326,14.4376619 45.2841797,14.6176758 C45.1930334,14.7976897 45.1178388,14.9697257 45.0585938,15.1337891 C44.9993487,15.2978524 44.9583334,15.4527987 44.9355469,15.5986328 L41.3671875,15.5986328 C41.3398436,15.4527987 41.2965498,15.2978524 41.2373047,15.1337891 C41.1780596,14.9697257 41.1040044,14.7976897 41.0151367,14.6176758 C40.9262691,14.4376619 40.8203131,14.2519541 40.6972656,14.0605469 C40.5742181,13.8691397 40.4352221,13.6708995 40.2802734,13.4658203 C40.1116528,13.2425119 39.9498706,13.0397145 39.7949219,12.8574219 C39.6399732,12.6751293 39.5100917,12.5292974 39.4052734,12.4199219 C39.660483,12.059894 39.8997385,11.6884785 40.1230469,11.3056641 C40.3463553,10.9228496 40.5514314,10.5434589 40.7382812,10.1674805 C40.9251311,9.79150203 41.0937492,9.42692234 41.2441406,9.07373047 C41.394532,8.7205386 41.5266921,8.39355619 41.640625,8.09277344 C41.7591152,7.78287605 41.871907,7.47184401 41.9790039,7.15966797 C42.0861008,6.84749193 42.178385,6.55468887 42.2558594,6.28125 C42.3697922,5.88476364 42.4324544,5.63069717 42.4438477,5.51904297 C42.4552409,5.40738876 42.4563803,5.33333352 42.4472656,5.296875 C42.438151,5.24674454 42.4187827,5.20003277 42.3891602,5.15673828 C42.3595376,5.11344379 42.3219403,5.07812514 42.2763672,5.05078125 C42.2216794,5.02343736 42.1783856,4.98242215 42.1464844,4.92773438 C42.1145832,4.8730466 42.0986328,4.8138024 42.0986328,4.75 C42.0986328,4.6542964 42.1328122,4.57226597 42.2011719,4.50390625 C42.2695316,4.43554653 42.351562,4.40136719 42.4472656,4.40136719 C42.5839851,4.40136719 42.6728514,4.41048168 42.7138672,4.42871094 L42.7753906,4.45605469 C42.7890626,4.47428395 42.7970377,4.51529916 42.7993164,4.57910156 C42.8015951,4.64290396 42.8027344,4.69986954 42.8027344,4.75 L42.8027344,11.4628906 C42.5976552,11.5312503 42.4290371,11.6554353 42.296875,11.8354492 C42.1647129,12.0154631 42.0986328,12.2193999 42.0986328,12.4472656 C42.0986328,12.7389338 42.2011708,12.9873037 42.40625,13.1923828 C42.6113292,13.397462 42.8596991,13.5 43.1513672,13.5 C43.438478,13.5 43.6845693,13.397462 43.8896484,13.1923828 C44.0947276,12.9873037 44.1972656,12.7389338 44.1972656,12.4472656 C44.1972656,12.2193999 44.1323249,12.0154631 44.0024414,11.8354492 C43.8725579,11.6554353 43.7050792,11.5312503 43.5,11.4628906 L43.5,4.75 C43.5,4.69986954 43.5011393,4.64290396 43.503418,4.57910156 C43.5056966,4.51529916 43.5136718,4.47428395 43.5273438,4.45605469 L43.5888672,4.42871094 C43.629883,4.41048168 43.7164707,4.40136719 43.8486328,4.40136719 C43.9443364,4.40136719 44.0263668,4.43554653 44.0947266,4.50390625 C44.1630863,4.57226597 44.1972656,4.6542964 44.1972656,4.75 C44.1972656,4.8138024 44.1824546,4.8730466 44.152832,4.92773438 C44.1232095,4.98242215 44.081055,5.02343736 44.0263672,5.05078125 C43.980794,5.07812514 43.9431968,5.11344379 43.9135742,5.15673828 C43.8839517,5.20003277 43.8645834,5.24674454 43.8554688,5.296875 C43.8463541,5.33333352 43.8463541,5.40738876 43.8554688,5.51904297 C43.8645834,5.63069717 43.9261062,5.88476364 44.0400391,6.28125 C44.1220707,6.55468887 44.2154943,6.84749193 44.3203125,7.15966797 C44.4251307,7.47184401 44.5367833,7.78287605 44.6552734,8.09277344 C44.7737636,8.39355619 44.9082024,8.7205386 45.0585938,9.07373047 C45.2089851,9.42692234 45.3776032,9.79150203 45.5644531,10.1674805 C45.751303,10.5434589 45.9552398,10.9228496 46.1762695,11.3056641 C46.3972993,11.6884785 46.637694,12.059894 46.8974609,12.4199219 C46.7926427,12.5292974 46.6616219,12.6751293 46.5043945,12.8574219 C46.3471672,13.0397145 46.1865243,13.2425119 46.0224609,13.4658203 Z" id="design"></path>
                </g>
            </g>
        </g>
    </g>
</svg>