<?xml version="1.0" encoding="UTF-8" standalone="no"?>
<svg width="757px" height="132px" viewBox="0 0 757 132" version="1.1" xmlns="http://www.w3.org/2000/svg" xmlns:xlink="http://www.w3.org/1999/xlink">
    <!-- Generator: Sketch 41.2 (35397) - http://www.bohemiancoding.com/sketch -->
    <title>graph-clouds</title>
    <desc>Created with Sketch.</desc>
    <defs></defs>
    <g id="Landing" stroke="none" stroke-width="1" fill="none" fill-rule="evenodd">
        <g id="Doable-landing" transform="translate(-327.000000, -284.000000)">
            <g id="Graphic-Copy" transform="translate(719.000000, 229.500000) scale(-1, 1) translate(-719.000000, -229.500000) translate(317.000000, 43.000000)">
                <g id="graph-clouds" transform="translate(36.765517, 240.826700)">
                    <path d="M364.754569,74.0410013 L417.408526,74.5905814 C417.408526,74.5905814 408.521534,79.524463 408.521534,84.2713545 C408.521534,89.018246 405.459573,88.343373 403.89396,86.3073638 C402.328346,84.2713545 394.21657,80.400564 384.366488,82.3359593 C374.516407,84.2713545 378.29855,79.9316649 376.317337,79.9316649 C374.336124,79.9316649 364.754569,74.0410013 364.754569,74.0410013 Z" id="Path-11" fill="#6DB0F8"></path>
                    <path d="M45.7223691,32.4674959 C45.7223691,32.4674959 64.6397257,13.8471673 81.4411317,19.6771814 C98.2425378,25.5071954 105.922584,35.701381 107.183615,42.2033219 C108.444645,48.7052629 112.892886,34.2775983 123.328412,41.2484383 C133.763938,48.2192784 136.348624,53.8118968 136.348624,53.8118968 C136.348624,53.8118968 141.750465,47.4988443 151.420264,47.4988443 C161.090063,47.4988443 164.637838,49.9657852 164.637838,49.9657852 C164.637838,49.9657852 168.409544,41.6717764 176.765176,40.5906507 C185.120809,39.5095251 191.188747,42.1027079 191.188747,42.1027079 C191.188747,42.1027079 203.596947,33.1044013 217.417045,37.1764198 C231.237143,41.2484383 242.348255,52.9120661 242.348255,57.846897 C242.348255,62.7817278 240.342372,57.1340564 247.076409,57.1340564 C253.810445,57.1340564 262.525694,59.7822922 262.525694,59.7822922 C262.525694,59.7822922 278.184676,31.1652093 299.504538,35.87793 C320.8244,40.5906507 325.561093,52.0729835 327.847837,57.07141 C330.134582,62.0698364 331.035047,69.6434111 331.035047,69.6434111 C331.035047,69.6434111 346.208215,69.8313505 352.574095,76.8031397 C354.170072,74.1290461 360.020722,72.6988488 366.746219,74.7509943 C373.471715,76.8031397 378.300447,82.5761039 378.300447,82.5761039 C378.300447,82.5761039 389.167703,81.7294278 392.778103,82.1527659 C396.388503,82.5761039 406.904682,87.7463335 406.904682,87.7463335 C406.904682,87.7463335 408.445625,75.5046499 420.221886,74.0637818 C431.998147,72.6229137 435.544974,75.278743 435.544974,75.278743 C435.544974,75.278743 444.101764,59.0495187 457.255764,54.5076519 C470.409765,49.9657852 470.0492,51.6344585 470.0492,51.6344585 C470.0492,51.6344585 477.504367,14.7129257 502.363464,19.0364791 C527.222562,23.3600326 530.699173,28.8264089 532.139537,31.4746447 C533.579902,34.1228805 537.190302,42.3542429 537.190302,42.3542429 C537.190302,42.3542429 544.276364,39.166868 548.309005,39.166868 C552.341646,39.166868 558.473158,41.5882478 558.473158,41.5882478 C558.473158,41.5882478 567.118192,20.6994573 582.433688,19.2585892 C597.749184,17.8177212 609.039631,23.9428343 609.039631,23.9428343 C609.039631,23.9428343 619.530191,21.2319521 625.786952,23.9342916 C632.043713,26.6366312 636.42838,31.3284697 636.42838,31.3284697 C636.42838,31.3284697 643.21745,28.4960913 651.455424,30.4817936 C659.693398,32.4674959 665.815422,35.7146696 665.815422,35.7146696 C665.815422,35.7146696 668.263472,27.1302092 677.51103,24.5370263 C686.758587,21.9438434 694.447173,24.1772838 694.447173,24.1772838 C694.447173,24.1772838 699.777851,5.91205029 714.444329,3.51534942 C729.110807,1.11864856 736.087751,2.62311227 736.087751,2.62311227 L756.982525,1.56571632 L756.982525,127.164817 L45.9966768,127.164817 L45.7223691,32.4674959 Z" id="Path-10" fill="#FFFFFF"></path>
                    <path d="M256.712049,71.9651261 C255.985398,69.8713773 262.86064,68.4256024 273.016254,72.8744487 C283.171867,77.323295 298.360217,73.0462518 299.449504,71.9651261 C300.538792,70.8840005 308.07651,67.9937216 319.141128,67.9937216 C330.205746,67.9937216 330.268371,69.6690392 330.268371,69.6690392 C330.268371,69.6690392 315.221401,71.3994098 307.335453,82.5220002 C299.449504,93.6445906 301.493342,93.2383379 301.493342,93.2383379 C301.493342,93.2383379 294.101748,90.89669 288.996899,90.89669 C283.89205,90.89669 280.336683,93.9673147 280.336683,93.9673147 C280.336683,93.9673147 271.860546,74.8088948 256.712049,71.9651261 Z" id="Path-12" fill="#EAF5FF"></path>
                    <path d="M623.708956,53.1066498 C621.491271,51.8753298 633.320874,49.7087008 639.937252,50.7725953 C646.55363,51.8364899 648.35456,51.9163674 648.35456,51.9163674 C648.35456,51.9163674 663.082714,47.2406651 675.219541,55.6447797 C687.356367,64.0488944 684.520234,49.8556793 695.711051,49.8556793 C706.901867,49.8556793 720.314906,55.6286435 720.314906,55.6286435 C720.314906,55.6286435 709.221822,56.7553302 700.201041,69.264685 C700.201041,70.9324091 695.807834,68.0202989 695.807834,68.0202989 C695.807834,68.0202989 677.728318,64.238732 673.657723,65.3189085 C669.587127,66.399085 669.101313,65.2990936 667.480665,63.7432557 C665.860018,62.1874177 655.926437,55.9722497 648.35456,57.4757643 C640.782684,58.9792788 637.38293,53.1066498 623.708956,53.1066498 Z" id="Path-13" fill="#EAF4FF"></path>
                    <path d="M494.932018,64.555761 C496.636165,58.7201503 489.933885,43.9773552 482.839284,41.8786995 C475.744682,39.7800438 472.686072,41.8786995 472.686072,41.8786995 C472.686072,41.8786995 467.977845,51.5174659 471.902317,52.1014592 C475.826788,52.6854525 490.396483,58.7201503 494.932018,64.555761 Z" id="Path-14" fill="#EAF4FF"></path>
                    <path d="M469.310722,50.8924788 C469.245493,50.8920943 469.180209,50.8919017 469.114869,50.8919017 C454.353199,50.8919017 441.412741,60.6590472 435.35235,74.2055837 C435.15706,74.642107 434.968915,75.0825548 434.788082,75.5267266 L436.707269,74.689052 C436.252783,74.517428 435.801112,74.3563118 435.35235,74.2055837 C426.971557,71.3906831 419.605049,72.1988386 413.85495,75.850712 C409.623495,78.5380983 406.605001,82.7270015 405.940428,86.234669 C405.801101,86.1179486 405.685216,86.0212579 405.618024,85.9663709 C404.754849,85.2612728 403.924358,84.6512254 402.992339,84.0652678 C397.078815,80.3474546 389.456762,79.1419131 379.163457,81.7108602 C377.606361,79.9030853 375.964097,78.3928332 374.245405,77.1669112 C367.693741,72.4936903 360.694825,72.2006296 354.245376,74.4985635 C353.503362,74.7629425 352.861411,75.0292345 352.330236,75.2753224 C352.27389,75.2134197 352.215051,75.1501861 352.153671,75.0857028 C351.297773,74.1865333 350.177419,73.3010601 348.76273,72.4858348 C344.841961,70.2264624 339.381482,68.8899815 332.145548,68.8899815 C332.010707,68.8899815 331.876026,68.8908289 331.741511,68.8925185 C331.485611,64.1999094 329.311526,56.5476182 325.582322,50.3983156 C319.622384,40.5706281 310.362968,34.7155515 297.486881,34.7155515 C284.867286,34.7155515 275.267373,39.5678494 268.35745,47.6312458 C265.944803,50.4466361 264.038854,53.4592598 262.582306,56.4741134 C262.248634,57.1647691 261.954128,57.8243049 261.696885,58.4460365 C261.316808,58.201486 260.89294,57.964328 260.423115,57.7378853 C258.565155,56.8423985 256.161931,56.1962729 253.145323,55.8848209 C249.213823,55.4789104 246.585766,55.7362488 244.208517,56.4941303 C243.956855,56.5743617 243.39635,56.7696135 243.091638,56.8765639 C239.900135,46.4064942 231.376034,38.6416655 216.802512,35.5466271 C208.193427,33.7182806 200.764758,35.0017641 194.657833,38.2668359 C193.200646,39.0459218 191.9344,39.8829633 190.862394,40.7241791 C190.58393,40.6667506 190.397639,40.5236358 190.192658,40.3833697 C188.376701,39.1407323 185.647943,38.554569 181.859015,38.8692591 C173.734875,38.8812598 169.463142,41.1974681 164.057856,48.1027826 C155.121082,44.922827 147.003511,46.0700555 140.083821,49.9406223 C138.758728,50.6818205 137.580152,51.4732392 136.555052,52.2708208 C136.333314,51.8628341 136.072147,51.4173792 135.768158,50.9398827 C134.26707,48.5820194 132.188437,46.2360706 129.442538,44.0571059 C128.194555,43.0667891 126.831508,42.1315912 125.34876,41.2600715 C119.81986,38.0103313 114.171034,38.1481491 109.043087,40.319851 C108.69166,40.4686813 108.36388,40.618032 108.060922,40.7648708 C107.856496,39.9810715 107.563111,39.083124 107.15829,38.0924349 C105.704643,34.5350273 103.241581,30.9956201 99.5446591,27.7147269 C96.5539029,25.0605317 92.8650438,22.6849632 88.416945,20.6528188 C78.2507794,16.0083364 68.1434041,17.1472794 58.9480586,21.8320918 C57.1939454,22.7257713 55.6193976,23.6838028 54.2453961,24.6441901 C53.4112986,25.2272002 52.8220901,25.6880095 52.4993347,25.9651452 C51.8708158,26.5048262 51.7987985,27.4518392 52.3384795,28.0803581 C52.8781605,28.7088769 53.8251736,28.7808942 54.4536924,28.2412132 C54.5082467,28.1943699 54.6309595,28.0936059 54.81891,27.9466133 C55.1420847,27.6938642 55.5247938,27.4101256 55.9640849,27.1030738 C57.2287057,26.2191404 58.6853437,25.332851 60.3099262,24.5051643 C68.7584851,20.2008221 77.9428142,19.165892 87.1703113,23.3815372 C91.3519801,25.2919613 94.7893228,27.5055571 97.5533514,29.9585392 C100.90022,32.9287717 103.09802,36.0869992 104.381197,39.2272263 C104.823798,40.3103732 105.121519,41.3089773 105.301976,42.1960438 C105.405662,42.7057272 105.447366,43.0493844 105.454784,43.1991343 C105.513522,44.3848689 106.861109,45.0356747 107.826311,44.3444433 C107.913465,44.2820277 108.113036,44.1519458 108.414707,43.9763505 C108.935216,43.6733741 109.538193,43.3681153 110.213005,43.0823301 C114.538847,41.2503226 119.217586,41.1361726 123.828588,43.8463961 C125.190881,44.6471155 126.438792,45.5033184 127.577732,46.4071062 C130.055108,48.3729881 131.911351,50.4679463 133.23748,52.55099 C133.694669,53.269129 134.052273,53.9305025 134.321172,54.5170131 C134.474636,54.8517424 134.561223,55.0753608 134.591798,55.1694807 C134.939045,56.238415 136.29514,56.5598538 137.08523,55.7605055 C137.119774,55.7255572 137.20559,55.6431769 137.341279,55.5201155 C137.578614,55.3048674 137.863162,55.0622624 138.193491,54.7990248 C139.148661,54.0378539 140.270864,53.2734265 141.548347,52.5588593 C148.005321,48.9471149 155.571606,47.9834502 164.024742,51.2926185 C164.650706,51.5376661 165.363264,51.3363411 165.768442,50.7999556 C170.992217,43.8845987 174.441138,41.8692122 181.922644,41.8692122 C185.225485,41.5924021 187.289996,42.0322536 188.498476,42.8592021 C188.962681,43.176852 189.147376,43.4268364 189.169767,43.4861428 C189.557337,44.5126721 190.879826,44.7893148 191.646361,44.0042047 C191.676637,43.9731948 191.756751,43.8958598 191.886046,43.7787519 C192.114404,43.5719169 192.390746,43.338255 192.714396,43.0842831 C193.653484,42.3473693 194.774575,41.6062812 196.072311,40.9124461 C201.581088,37.9671744 208.296097,36.8069931 216.179289,38.4811788 C230.275983,41.4749513 238.013842,48.944429 240.575492,59.0172539 C240.744577,59.682125 241.343184,60.1475524 242.029218,60.1475524 C242.906926,60.0769837 243.310777,59.9727887 243.848599,59.7905342 C243.850212,59.7899875 244.810823,59.4508789 245.119748,59.3523916 C247.098304,58.7216159 249.311293,58.5049208 252.837223,58.8689581 C255.520928,59.1460392 257.588394,59.7018936 259.12059,60.4403709 C259.859974,60.7967341 260.41041,61.1647899 260.800407,61.516349 C260.993757,61.6906431 261.078547,61.7923719 261.08052,61.7955203 C261.7664,62.8901267 263.422961,62.6636275 263.789833,61.4250802 C263.837231,61.2650664 263.946984,60.9360642 264.125213,60.4624492 C264.428543,59.6563979 264.812679,58.7538507 265.283575,57.7791607 C266.633317,54.9853795 268.402225,52.1893683 270.635437,49.583366 C276.999398,42.1570694 285.786613,37.7155515 297.486881,37.7155515 C309.25122,37.7155515 317.573968,42.9783379 323.017164,51.9539391 C326.494953,57.6886676 328.529146,64.8923168 328.747412,69.0700957 C315.805348,70.4457607 304.737675,79.5565925 299.287517,91.3942675 C299.055962,91.8972004 298.834548,92.4050553 298.623561,92.9174482 L300.772143,92.1962876 C300.27814,91.9051634 299.78315,91.6380712 299.287516,91.3942665 C293.404133,88.5002034 287.430088,88.8875217 281.940731,91.3112384 C281.30332,91.5926749 280.731363,91.8752875 280.23009,92.1456136 C280.020775,91.513973 279.755307,90.7960347 279.426152,90.0067923 C278.151169,86.9496544 276.330909,83.8964836 273.866094,81.0466232 C269.912744,76.4756921 264.68426,72.8800159 258.029315,70.634631 C247.95015,67.2339107 239.56546,68.2978364 232.995148,72.1665339 C231.668239,72.9478376 230.526491,73.7875043 229.568975,74.631835 C228.980387,75.1508475 228.575252,75.5672956 228.35263,75.8286147 C227.815399,76.4592288 227.891101,77.4059545 228.521715,77.9431856 C229.152329,78.4804168 230.099055,78.4047149 230.636286,77.7741008 C230.769579,77.6176386 231.075699,77.3029695 231.553131,76.8819742 C232.372313,76.1596252 233.360879,75.4326123 234.517321,74.7516816 C240.357534,71.3128773 247.841142,70.3632891 257.070232,73.4771931 C263.206725,75.547652 267.986916,78.8350328 271.597033,83.009111 C273.841472,85.6041701 275.499271,88.3848417 276.6573,91.1615462 C277.060531,92.1284075 277.37193,93.0228376 277.602517,93.8204469 C277.737131,94.2860818 277.813414,94.6067143 277.842601,94.7578398 C278.052154,95.8428612 279.323202,96.3364924 280.210143,95.6773115 C280.3239,95.5927666 280.573965,95.4234438 280.947644,95.1972407 C281.587653,94.8098176 282.32695,94.4201229 283.152464,94.0556332 C287.676805,92.0580002 292.504533,91.6642881 297.291102,93.7740963 C297.944798,94.06223 298.597725,94.3970569 299.249008,94.7808683 C300.03544,95.2443258 301.050026,94.9037855 301.397591,94.0597077 C306.574435,81.487501 318.529927,71.8899815 332.145548,71.8899815 C338.875882,71.8899815 343.820202,73.10013 347.264861,75.0851401 C348.428071,75.7554486 349.32156,76.4616188 349.980709,77.1540928 C350.346552,77.5384317 350.543121,77.8084327 350.602279,77.9140441 C351.015866,78.6523998 351.958026,78.9026228 352.683464,78.4667741 C352.779659,78.4089788 352.995719,78.2907584 353.320748,78.1318325 C353.880286,77.8582408 354.527823,77.5826637 355.25227,77.3245435 C360.856607,75.3277225 366.852752,75.5787949 372.503305,79.6092641 C374.228982,80.8401678 375.883976,82.4103598 377.457169,84.3462962 C377.830029,84.8051287 378.43763,85.002139 379.008788,84.8493972 C388.972673,82.1848071 396.015192,83.2223913 401.395596,86.6050341 C402.212725,87.1187602 402.946326,87.6576358 403.720141,88.28974 C403.942212,88.4711423 405.062846,89.4213453 405.325494,89.6229794 C407.22042,91.0777087 408.802764,90.0727698 408.802764,87.6287899 C408.802764,85.019531 411.461096,80.9249337 415.463294,78.3831478 C420.156455,75.4025328 426.142346,74.6046747 433.131091,76.6509781 C433.956063,76.8925295 434.795008,77.1737117 435.64745,77.4956127 C436.408487,77.7829974 437.259892,77.4113814 437.566636,76.657938 C442.927431,63.490412 455.191591,53.8919017 469.114869,53.8919017 C475.743038,53.8919017 481.774568,56.0826263 487.097928,59.7458678 C488.967811,61.0326174 490.613015,62.4114609 492.016373,63.787518 C492.504598,64.2662449 492.926567,64.7089452 493.280239,65.1036557 C493.48668,65.3340517 493.621015,65.4927454 493.681258,65.5677524 C494.200019,66.2136458 495.144158,66.3167068 495.790052,65.7979456 C496.435945,65.2791844 496.539006,64.3350453 496.020245,63.6891519 C495.677497,63.2624073 495.038607,62.5493819 494.116755,61.6454642 C492.595272,60.1535799 490.818514,58.6644819 488.798596,57.274486 C483.874396,53.885924 478.363101,51.6448125 472.340194,51.0501573 C472.358062,50.9648319 472.376812,50.8768591 472.39646,50.7862973 C472.627024,49.7235949 472.930076,48.535945 473.314005,47.2551078 C474.411349,43.5942199 475.93263,39.9342381 477.940045,36.5290024 C483.615811,26.9010415 491.955629,21.1840973 503.604992,21.1840973 C515.374344,21.1840973 523.7642,25.387616 529.437631,32.4032647 C531.424063,34.8596466 532.929618,37.4952531 534.017009,40.1285514 C534.396168,41.0467468 534.695356,41.8965787 534.922746,42.6548763 C535.055824,43.0986622 535.133892,43.4052451 535.165328,43.5514128 C535.387639,44.5850928 536.580956,45.0705074 537.461702,44.4855264 C537.582195,44.405496 537.845921,44.2461052 538.240158,44.0333774 C538.915259,43.6690966 539.696339,43.3026263 540.570435,42.959647 C545.256354,41.1209758 550.309674,40.7203909 555.373563,42.5593158 C556.107004,42.825661 556.840666,43.1389863 557.573466,43.5017268 C558.345211,43.8837456 559.279431,43.5390214 559.618061,42.7472774 C565.486954,29.0253604 576.805028,20.2383579 590.786871,20.2383579 C597.468184,20.2383579 602.233345,21.3217683 605.407928,23.0893419 C606.464978,23.677896 607.249219,24.2927198 607.803635,24.8897756 C608.09997,25.2089011 608.244664,25.4214525 608.275876,25.4845244 C608.636449,26.2131468 609.511825,26.5219152 610.249737,26.1807579 C610.337651,26.140113 610.534499,26.0571343 610.830264,25.9455822 C611.339662,25.7534551 611.92853,25.5598802 612.586733,25.3784641 C617.408652,24.0494297 622.565988,24.1382133 627.37081,26.5810748 C630.032089,27.9341188 632.471903,29.9767196 634.64493,32.8017061 C635.090966,33.3815627 635.890236,33.5550847 636.53656,33.2123797 C644.176033,29.1616466 659.6018,32.2743143 663.758106,37.5870057 C664.407695,38.4173266 665.688582,38.3361552 666.228158,37.4304753 C669.54553,31.8622639 671.931824,28.9492077 675.376842,26.9539795 C679.782069,24.4026339 685.524964,23.9930139 693.447764,26.1578756 C694.180032,26.357964 694.946351,25.9794509 695.232492,25.2763321 C701.749137,9.26334364 712.078097,3.34162808 727.362251,3.59113462 C728.190568,3.60465649 728.873013,2.94413473 728.886535,2.11581797 C728.900057,1.28750121 728.239535,0.605056149 727.411218,0.591534273 C711.348755,0.329322211 700.018164,6.59972387 692.962559,22.9321096 C684.942885,20.9543299 678.776633,21.5181215 673.873314,24.3579437 C670.2539,26.454175 667.740475,29.296752 664.665499,34.2281913 C658.635514,29.0096358 644.639596,26.4514242 636.261794,30.0236354 C634.00666,27.3274911 631.480143,25.3048639 628.730432,23.9068591 C623.16497,21.0772743 617.269953,20.9757915 611.789587,22.4863094 C611.156712,22.6607446 610.603942,22.8364723 610.140007,23.0002764 C609.232998,22.0202602 608.199314,21.2098801 606.867327,20.4682439 C603.216088,18.4352738 597.951697,17.2383579 590.786871,17.2383579 C575.993617,17.2383579 563.964056,26.2094362 557.485308,40.1642949 C551.312222,37.5723713 545.129692,37.9479948 539.474627,40.1669412 C538.750015,40.4512659 538.106801,40.7369957 537.551943,41.0079311 C537.350799,40.4109381 537.098702,39.7313444 536.789896,38.9835185 C535.597871,36.0968342 533.950211,33.212458 531.770325,30.5168561 C525.53999,22.8125509 516.302002,18.1840973 503.604992,18.1840973 C490.787994,18.1840973 481.531362,24.5295178 475.355682,35.005498 C473.215091,38.6366416 471.602777,42.5156377 470.440327,46.3937278 C470.033327,47.7515328 469.711171,49.0140507 469.464669,50.150217 C469.404117,50.4293078 469.353,50.6774158 469.310722,50.8924788 Z M670.520576,64.7117896 C664.538462,57.3007455 652.821145,53.2819452 644.327754,57.7059323 C642.476379,56.0761455 640.37946,54.8193615 638.085745,53.9024513 C633.610454,52.1134576 628.926379,51.7511465 624.762892,52.1923201 C624.19608,52.2523808 623.78246,52.3139036 623.545562,52.3580521 C622.731157,52.5098257 622.193988,53.2930686 622.345761,54.107474 C622.497535,54.9218795 623.280778,55.4590488 624.095183,55.3072752 C624.257227,55.2770765 624.593366,55.2270785 625.079009,55.1756185 C628.79885,54.7814549 633.019117,55.1078907 636.972176,56.6881223 C639.261338,57.6032129 641.307899,58.8995442 643.06085,60.6234729 C643.554569,61.1090172 644.316494,61.1934922 644.904579,60.8278881 C652.259494,56.2554496 663.648191,60.2355126 668.767741,67.3588761 C669.165936,67.9129273 669.887885,68.1284397 670.52464,67.8833365 C677.956961,65.0224469 693.248398,66.9546351 698.06268,72.1723945 C698.727157,72.8925598 699.892443,72.7926373 700.424613,71.9698604 C706.677958,62.3016989 711.79334,58.8074464 720.516615,58.8074464 C721.345042,58.8074464 722.016615,58.1358736 722.016615,57.3074464 C722.016615,56.4790193 721.345042,55.8074464 720.516615,55.8074464 C711.120119,55.8074464 705.250943,59.5064149 698.880497,68.8700173 C692.492004,63.8705968 678.614056,62.1962479 670.520576,64.7117896 Z M532.561202,107.73068 C531.012002,106.396486 529.317345,105.323423 527.501939,104.493391 C522.951191,102.412718 518.180278,102.00481 513.926073,102.542758 C513.323214,102.61899 512.881811,102.697222 512.627164,102.753695 C511.818387,102.933057 511.308144,103.734102 511.487506,104.542879 C511.666868,105.351657 512.467913,105.861899 513.276691,105.682537 C513.444124,105.645406 513.794922,105.583232 514.302428,105.519057 C518.050453,105.045116 522.285919,105.407244 526.254495,107.221739 C528.106011,108.068282 529.806614,109.205094 531.329421,110.663302 C531.830747,111.143361 532.595957,111.216767 533.179404,110.840769 C540.185671,106.325628 552.805809,110.340623 558.359387,118.022414 C558.737852,118.545912 559.40896,118.768316 560.025159,118.574447 C569.961418,115.448304 579.242417,116.761899 587.430852,122.801428 C588.09755,123.293164 589.036647,123.151329 589.528383,122.48463 C590.020119,121.817931 589.878283,120.878834 589.211585,120.387098 C580.509108,113.968428 570.589981,112.402718 560.136198,115.408226 C553.716359,107.443041 540.852743,103.353659 532.561202,107.73068 Z M198.415466,127.42177 C199.213154,127.67952 200.036735,127.981619 200.886849,128.33017 C201.631655,128.635545 202.484715,128.298577 202.819773,127.566644 C210.125361,111.607625 219.148602,105.343699 235.0006,105.343699 C235.829027,105.343699 236.5006,104.672126 236.5006,103.843699 C236.5006,103.015272 235.829027,102.343699 235.0006,102.343699 C218.366281,102.343699 208.387822,108.975914 200.69225,125.036142 C200.490625,125.456921 200.290567,125.884173 200.091998,126.317946 L202.024922,125.55442 C201.57526,125.370056 201.131038,125.19737 200.69225,125.036142 C192.682105,122.092903 186.48243,122.968076 182.046019,126.32621 C180.509798,127.48905 179.535408,128.67126 179.046663,129.520115 C178.633301,130.238045 178.880202,131.155139 179.598132,131.568501 C180.316062,131.981863 181.233156,131.734961 181.646518,131.017031 C181.705304,130.91493 181.863441,130.683141 182.126179,130.364366 C182.58509,129.807578 183.160205,129.245373 183.856639,128.718209 C187.255984,126.14508 191.997729,125.348067 198.415466,127.42177 Z M125.346584,93.0746801 C123.543481,90.2405186 121.32476,88.2077166 118.783586,86.9071616 C115.236716,85.0918974 111.504008,84.8499312 108.100482,85.515687 C107.468096,85.6393865 106.997712,85.7668654 106.718886,85.8604716 C105.933534,86.1241265 105.510616,86.9745146 105.77427,87.7598665 C106.037925,88.5452183 106.888313,88.9681372 107.673665,88.7044823 C107.833736,88.6507441 108.17888,88.5572066 108.676391,88.4598896 C111.476356,87.9121948 114.552069,88.1115725 117.416809,89.5777271 C119.691207,90.7417484 121.670341,92.6485298 123.27528,95.4462778 C123.587282,95.9901631 124.204661,96.2825973 124.823142,96.179454 C132.014884,94.9800947 138.895786,98.0066851 141.888064,102.850878 C142.411429,103.698153 143.599969,103.809559 144.271671,103.074303 C149.52062,97.328716 151.875573,96.1822728 158.621062,97.3125864 C159.438098,97.4494937 160.211422,96.8981405 160.348329,96.0811045 C160.485236,95.2640684 159.933883,94.4907445 159.116847,94.3538372 C151.793036,93.1266165 148.437585,94.4053559 143.320651,99.7026358 C139.482103,94.9865056 132.586552,92.2074133 125.346584,93.0746801 Z M37.264374,67.4482735 C33.8307332,63.5237199 28.5734903,61.1822611 21.2455491,61.1822611 C14.0332145,61.1822611 8.63960338,62.857293 4.83577773,65.684516 C3.47110738,66.6988179 2.40679245,67.79547 1.60859003,68.9032086 C1.11013916,69.5949546 0.804409713,70.1589914 0.653915667,70.5277231 C0.340870997,71.2947267 0.708877429,72.1702788 1.47588104,72.4833235 C2.24288465,72.7963681 3.11843677,72.4283617 3.43148144,71.6613581 C3.495574,71.5043223 3.68857007,71.148266 4.0425359,70.6570352 C4.66502798,69.7931459 5.51420332,68.9181699 6.62537131,68.0922857 C9.8953695,65.6618341 14.659602,64.1822611 21.2455491,64.1822611 C27.7158896,64.1822611 32.1476925,66.1560873 35.0065459,69.4236753 C35.9952814,70.5537719 36.7225387,71.7641771 37.2268407,72.9702905 C37.4011423,73.387159 37.5345813,73.7707742 37.6320986,74.1098353 C37.6868033,74.3000398 37.715906,74.4236679 37.7245615,74.469289 C37.9892059,75.8641655 39.8637887,76.1448872 40.5254305,74.8887234 C40.547964,74.8459423 40.6296755,74.7162399 40.7739831,74.5282642 C41.0342462,74.1892446 41.3649746,73.8449061 41.7692753,73.5213742 C43.2760529,72.3156118 45.3274664,71.729703 48.099122,72.1354417 C48.9188129,72.2554351 49.6805774,71.6882182 49.8005708,70.8685274 C49.9205642,70.0488365 49.3533473,69.2870719 48.5336565,69.1670786 C44.9239552,68.6386595 42.0401612,69.4623064 39.8948677,71.1790258 C39.8501912,71.2147771 39.806229,71.2505627 39.7629759,71.2863635 C39.1563173,69.9731435 38.3350213,68.6719929 37.264374,67.4482735 Z" id="Combined-Shape" fill="#6DB0F8"></path>
                </g>
            </g>
        </g>
    </g>
</svg>