<?xml version="1.0" encoding="UTF-8" standalone="no"?>
<svg width="225px" height="102px" viewBox="0 0 225 102" version="1.1" xmlns="http://www.w3.org/2000/svg" xmlns:xlink="http://www.w3.org/1999/xlink">
    <!-- Generator: Sketch 41.2 (35397) - http://www.bohemiancoding.com/sketch -->
    <title>graph-data</title>
    <desc>Created with Sketch.</desc>
    <defs></defs>
    <g id="Landing" stroke="none" stroke-width="1" fill="none" fill-rule="evenodd">
        <g id="Doable-landing" transform="translate(-606.000000, -201.000000)">
            <g id="Graphic-Copy" transform="translate(719.000000, 229.500000) scale(-1, 1) translate(-719.000000, -229.500000) translate(317.000000, 43.000000)">
                <g id="graph-data" transform="translate(402.104598, 209.278717) scale(-1, 1) translate(-402.104598, -209.278717) translate(290.104598, 158.778717)">
                    <rect id="Rectangle-6" fill="#1384FF" x="0" y="0" width="9.22988506" height="9.22755365"></rect>
                    <rect id="Rectangle-6-Copy" fill="#4A586A" x="22.1517241" y="2.76826609" width="25.8436782" height="3.69102146" rx="1.84551073"></rect>
                    <path d="M59.0712644,4.61377682 C59.0712644,3.59452939 59.9018594,2.76826609 60.90916,2.76826609 L83.0770469,2.76826609 C84.0920886,2.76826609 84.9149425,3.58742339 84.9149425,4.61377682 C84.9149425,5.63302426 84.0843475,6.45928755 83.0770469,6.45928755 L60.90916,6.45928755 C59.8941183,6.45928755 59.0712644,5.64013026 59.0712644,4.61377682 Z M95.9908046,4.61377682 C95.9908046,3.59452939 96.8213997,2.76826609 97.8287002,2.76826609 L119.996587,2.76826609 C121.011629,2.76826609 121.834483,3.58742339 121.834483,4.61377682 C121.834483,5.63302426 121.003888,6.45928755 119.996587,6.45928755 L97.8287002,6.45928755 C96.8136585,6.45928755 95.9908046,5.64013026 95.9908046,4.61377682 Z M197.51954,4.61377682 C197.51954,3.59452939 198.350135,2.76826609 199.357436,2.76826609 L221.525323,2.76826609 C222.540364,2.76826609 223.363218,3.58742339 223.363218,4.61377682 C223.363218,5.63302426 222.532623,6.45928755 221.525323,6.45928755 L199.357436,6.45928755 C198.342394,6.45928755 197.51954,5.64013026 197.51954,4.61377682 Z" id="Combined-Shape" fill="#1384FF"></path>
                    <path d="M1,20.5371365 L1,97.5755503 C1,98.6869884 1.89519883,99.5803348 3.00605578,99.5803348 L59.7571626,99.5803348 C60.8687428,99.5803348 61.7632184,98.6850193 61.7632184,97.5755503 L61.7632184,20.5371365 C61.7632184,19.4256983 60.8680196,18.5323519 59.7571626,18.5323519 L3.00605578,18.5323519 C1.89447556,18.5323519 1,19.4276675 1,20.5371365 Z M0,20.5371365 C0,18.8776398 1.33993544,17.5323519 3.00605578,17.5323519 L59.7571626,17.5323519 C61.4173614,17.5323519 62.7632184,18.8704747 62.7632184,20.5371365 L62.7632184,97.5755503 C62.7632184,99.2350469 61.4232829,100.580335 59.7571626,100.580335 L3.00605578,100.580335 C1.34585701,100.580335 0,99.242212 0,97.5755503 L0,20.5371365 Z" id="Rectangle-7" fill="#E1E9F3"></path>
                    <rect id="Rectangle-6-Copy-5" fill="#4A586A" x="5.53793103" y="23.0688841" width="25.8436782" height="3.69102146" rx="1.84551073"></rect>
                    <rect id="Rectangle-8" fill="#EAEFF4" x="4.61494253" y="32.2964378" width="54.4563218" height="18.4551073"></rect>
                    <path d="M8.30689655,35.9874592 L54.4563218,35.9874592 L54.4563218,39.6784807 L8.30689655,39.6784807 L8.30689655,35.9874592 Z M8.30689655,43.3695022 L45.2264368,43.3695022 L45.2264368,47.0605236 L8.30689655,47.0605236 L8.30689655,43.3695022 Z M8.30689655,58.133588 C8.30689655,57.1143406 9.12749266,56.2880773 10.1444874,56.2880773 L52.618731,56.2880773 C53.6336044,56.2880773 54.4563218,57.1072346 54.4563218,58.133588 C54.4563218,59.1528354 53.6357257,59.9790987 52.618731,59.9790987 L10.1444874,59.9790987 C9.12961398,59.9790987 8.30689655,59.1599414 8.30689655,58.133588 Z M8.30689655,65.5156309 C8.30689655,64.4963835 9.12977756,63.6701202 10.1503738,63.6701202 L43.3829596,63.6701202 C44.4010839,63.6701202 45.2264368,64.4892775 45.2264368,65.5156309 C45.2264368,66.5348783 44.4035558,67.3611416 43.3829596,67.3611416 L10.1503738,67.3611416 C9.13224941,67.3611416 8.30689655,66.5419843 8.30689655,65.5156309 Z M8.30689655,78.434206 C8.30689655,77.4149586 9.12749266,76.5886953 10.1444874,76.5886953 L52.618731,76.5886953 C53.6336044,76.5886953 54.4563218,77.4078526 54.4563218,78.434206 C54.4563218,79.4534535 53.6357257,80.2797168 52.618731,80.2797168 L10.1444874,80.2797168 C9.12961398,80.2797168 8.30689655,79.4605595 8.30689655,78.434206 Z M8.30689655,85.8162489 C8.30689655,84.7970015 9.12977756,83.9707382 10.1503738,83.9707382 L43.3829596,83.9707382 C44.4010839,83.9707382 45.2264368,84.7898955 45.2264368,85.8162489 C45.2264368,86.8354964 44.4035558,87.6617597 43.3829596,87.6617597 L10.1503738,87.6617597 C9.13224941,87.6617597 8.30689655,86.8426024 8.30689655,85.8162489 Z" id="Combined-Shape" fill="#4A586A" opacity="0.70155084"></path>
                    <path d="M71.1471264,20.5391445 L71.1471264,78.1956796 C71.1471264,79.305054 72.044666,80.2024721 73.1531822,80.2024721 L129.904289,80.2024721 C131.01572,80.2024721 131.910345,79.3064083 131.910345,78.1956796 L131.910345,20.5391445 C131.910345,19.4297701 131.012805,18.5323519 129.904289,18.5323519 L73.1531822,18.5323519 C72.0417518,18.5323519 71.1471264,19.4284158 71.1471264,20.5391445 Z M70.1471264,20.5391445 C70.1471264,18.8785388 71.4870619,17.5323519 73.1531822,17.5323519 L129.904289,17.5323519 C131.564488,17.5323519 132.910345,18.8768832 132.910345,20.5391445 L132.910345,78.1956796 C132.910345,79.8562852 131.570409,81.2024721 129.904289,81.2024721 L73.1531822,81.2024721 C71.4929835,81.2024721 70.1471264,79.8579408 70.1471264,78.1956796 L70.1471264,20.5391445 Z" id="Rectangle-7" fill="#E1E9F3"></path>
                    <rect id="Rectangle-6-Copy-7" fill="#4A586A" x="77.537931" y="23.0688841" width="25.8436782" height="3.69102146" rx="1.84551073"></rect>
                    <path d="M78.454023,37.83297 C78.454023,36.8137225 79.2746191,35.9874592 80.2916138,35.9874592 L122.765857,35.9874592 C123.780731,35.9874592 124.603448,36.8066165 124.603448,37.83297 C124.603448,38.8522174 123.782852,39.6784807 122.765857,39.6784807 L80.2916138,39.6784807 C79.2767404,39.6784807 78.454023,38.8593234 78.454023,37.83297 Z M78.454023,45.2150129 C78.454023,44.1957655 79.276904,43.3695022 80.2975002,43.3695022 L113.530086,43.3695022 C114.54821,43.3695022 115.373563,44.1886594 115.373563,45.2150129 C115.373563,46.2342603 114.550682,47.0605236 113.530086,47.0605236 L80.2975002,47.0605236 C79.2793758,47.0605236 78.454023,46.2413663 78.454023,45.2150129 Z M78.454023,58.133588 C78.454023,57.1143406 79.2746191,56.2880773 80.2916138,56.2880773 L122.765857,56.2880773 C123.780731,56.2880773 124.603448,57.1072346 124.603448,58.133588 C124.603448,59.1528354 123.782852,59.9790987 122.765857,59.9790987 L80.2916138,59.9790987 C79.2767404,59.9790987 78.454023,59.1599414 78.454023,58.133588 Z M78.454023,65.5156309 C78.454023,64.4963835 79.276904,63.6701202 80.2975002,63.6701202 L113.530086,63.6701202 C114.54821,63.6701202 115.373563,64.4892775 115.373563,65.5156309 C115.373563,66.5348783 114.550682,67.3611416 113.530086,67.3611416 L80.2975002,67.3611416 C79.2793758,67.3611416 78.454023,66.5419843 78.454023,65.5156309 Z" id="Combined-Shape" fill="#4A586A" opacity="0.70155084"></path>
                    <path d="M141.294253,20.5385578 L141.294253,32.9812534 C141.294253,34.091561 142.190892,34.9874592 143.300309,34.9874592 L200.051415,34.9874592 C201.16289,34.9874592 202.057471,34.0916141 202.057471,32.9812534 L202.057471,20.5385578 C202.057471,19.4282501 201.160832,18.5323519 200.051415,18.5323519 L143.300309,18.5323519 C142.188834,18.5323519 141.294253,19.4281971 141.294253,20.5385578 Z M140.294253,20.5385578 C140.294253,18.8782761 141.634188,17.5323519 143.300309,17.5323519 L200.051415,17.5323519 C201.711614,17.5323519 203.057471,18.8744635 203.057471,20.5385578 L203.057471,32.9812534 C203.057471,34.641535 201.717536,35.9874592 200.051415,35.9874592 L143.300309,35.9874592 C141.64011,35.9874592 140.294253,34.6453477 140.294253,32.9812534 L140.294253,20.5385578 Z" id="Rectangle-7" fill="#E1E9F3"></path>
                    <rect id="Rectangle-6-Copy-5" fill="#4A586A" x="145.832184" y="23.0688841" width="25.8436782" height="3.69102146" rx="1.84551073"></rect>
                </g>
            </g>
        </g>
    </g>
</svg>