<?xml version="1.0" encoding="UTF-8" standalone="no"?>
<svg width="523px" height="185px" viewBox="0 0 523 185" version="1.1" xmlns="http://www.w3.org/2000/svg" xmlns:xlink="http://www.w3.org/1999/xlink">
    <!-- Generator: Sketch 41.2 (35397) - http://www.bohemiancoding.com/sketch -->
    <title>graph-buildings</title>
    <desc>Created with Sketch.</desc>
    <defs></defs>
    <g id="Landing" stroke="none" stroke-width="1" fill="none" fill-rule="evenodd">
        <g id="Doable-landing" transform="translate(-464.000000, -175.000000)">
            <g id="Graphic-Copy" transform="translate(719.000000, 229.500000) scale(-1, 1) translate(-719.000000, -229.500000) translate(317.000000, 43.000000)">
                <g id="graph-buildings" transform="translate(134.000000, 132.000000)">
                    <g id="flight" transform="translate(0.000000, 75.000000)">
                        <path d="M93.790898,16.0894165 C93.790898,15.9932861 27.6175169,16.0894165 27.6175169,16.0894165 C27.6175169,16.0894165 16.2942395,14.2783203 11.0614646,22.0969238 C2.47020896,24.6821899 -1.52362575,33.8299561 5.75625941,33.8299561 C13.0361446,33.8299561 58.8172063,34.2260132 86.0574017,33.8299561 C113.297597,33.4338989 109.33782,5.91033936 112.56923,2.48168945 C115.80064,-0.946960449 93.790898,8.11315918 93.790898,16.0894165 Z" id="Path-26" stroke="#6DB0F8" stroke-width="2" fill="#FAFCFF"></path>
                        <path d="M90.9511422,15.0618232 C89.2051661,15.0554822 86.6840434,15.0512093 83.4520335,15.0488618 C77.7646735,15.0447307 70.0095567,15.0466084 60.7034811,15.0533679 C55.6484393,15.0570396 50.2870514,15.0620465 44.7724892,15.0680548 C40.4833967,15.0727279 36.3474886,15.0777348 32.5179414,15.0827416 C31.177597,15.0844941 29.9712851,15.0861213 28.9181528,15.0875816 C27.9762805,15.088901 27.8617258,15.0890615 27.6920567,15.0893073 C27.521448,15.0645947 27.2626562,15.0334198 26.9260138,15.0027666 C24.0470484,14.7406196 20.8120923,14.9485297 17.722597,15.9900222 C14.7191084,17.0025212 12.2230336,18.7161567 10.4335027,21.2456115 C6.31886793,22.5812698 2.90390656,25.4717253 1.54367629,28.5260938 C-0.0090458915,32.0126987 1.60687614,34.8299561 5.75625941,34.8299561 C7.41445694,34.8299561 25.5724491,34.9269872 23.7522405,34.9179564 C35.5270917,34.976376 45.7489161,35.0078644 55.5775672,35.005899 C67.6392582,35.0034871 77.9099728,34.9485208 86.0719396,34.8298504 C99.0631167,34.640966 106.258501,28.6462523 109.734651,18.3018737 C110.382482,16.3740495 110.884903,14.3579052 111.330811,12.0495612 C111.587666,10.7198931 112.270464,6.62515062 112.242721,6.78206166 C112.621654,4.63884419 112.948071,3.53773783 113.296959,3.16755432 C114.124823,2.28915862 114.288407,1.0846853 112.906411,0.778519612 C112.390886,0.664310671 111.684024,0.784490991 110.706027,1.08345952 C108.919242,1.62966965 106.381324,2.75901303 103.906072,4.13462651 C97.8197804,7.51706433 93.5596127,11.3716681 92.8847517,15.0720972 C92.414932,15.0682107 91.7686907,15.0647923 90.9511422,15.0618232 Z M110.273267,6.43385117 C110.29708,6.29916626 109.618188,10.3704886 109.367114,11.6702295 C108.93681,13.8977948 108.455035,15.8310894 107.838831,17.6647976 C104.618236,27.2486908 98.1299198,32.6543227 86.0428638,32.8300617 C77.8920952,32.9485693 67.6301176,33.0034889 55.5771672,33.005899 C45.7525232,33.0078636 35.5338665,32.976385 23.7621632,32.9179811 C25.5952655,32.9270758 7.42069579,32.8299561 5.75625941,32.8299561 C3.11598849,32.8299561 2.38438893,31.5544587 3.37069212,29.3397357 C4.52246612,26.7534514 7.62261223,24.1760324 11.3496191,23.0545077 L11.693042,22.9511655 L11.8925141,22.6531223 C13.4312057,20.3540707 15.6373778,18.8035499 18.3614866,17.8852319 C21.1461554,16.9464988 24.1189311,16.755439 26.7446522,16.9945266 C27.0951389,17.0264405 27.3393058,17.0576285 27.4595799,17.0768657 C27.8487072,17.0890817 27.8487072,17.0890817 28.9209262,17.0875797 C29.9740068,17.0861194 31.180266,17.0844923 32.5205563,17.0827399 C36.3499653,17.0777332 40.4857299,17.0727265 44.7746682,17.0680536 C50.2890028,17.0620456 55.6501535,17.0570389 60.7049338,17.0533674 C70.0101216,17.0466085 77.764391,17.0447311 83.4505808,17.0488612 C86.6808152,17.0512075 89.200243,17.0554775 90.9438788,17.06181 C91.8629731,17.0651479 92.5640474,17.069052 93.0382977,17.0735301 C93.2791013,17.0758039 93.4604923,17.0782194 93.58001,17.080737 C93.8363014,17.248555 93.8363014,17.248555 92.790898,16.0894165 L94.790898,16.0894165 C94.790898,13.0998077 98.8513898,9.23185432 104.877614,5.88279902 C107.142939,4.62385115 109.456241,3.58435449 111.088825,3.05943234 C110.78505,3.83946643 110.54295,4.90854744 110.273267,6.43385117 Z" id="Path-26-Copy" fill="#6DB0F8"></path>
                        <path d="M84.0890437,29.0606079 L31.553162,28.6824951 C31.553162,28.6824951 26.4065324,32.003479 38.4757154,35.1655273 C50.5448983,38.3275757 56.2770614,39.7874756 72.6031156,39.7874756 C88.9291698,39.7874756 84.0890437,29.0606079 84.0890437,29.0606079 Z" id="Path-27" stroke="#6DB0F8" stroke-width="2" fill="#FAFCFF"></path>
                        <path d="M84.7370059,28.0652455 L31.2618219,27.6803724 L31.0109685,27.8422414 C30.8036205,27.9760376 30.531033,28.1964228 30.257656,28.5066873 C29.3924254,29.4886657 29.1299291,30.734447 29.9422126,31.9955764 C30.8325799,33.3779366 32.9762642,34.5880298 36.6397655,35.6892792 C37.1387126,35.8392628 37.6660249,35.9871444 38.2222756,36.1328785 C53.0429406,40.0157974 58.1004088,40.7874756 72.6031156,40.7874756 C80.1417665,40.7874756 84.236477,38.5520683 85.4235684,34.7199433 C85.9283326,33.0904818 85.8367285,31.3886147 85.3880126,29.7698581 C85.2476062,29.2633377 85.1042561,28.8791592 85.0005502,28.6493223 L84.7370059,28.0652455 Z M83.4606888,30.3041082 C83.8159149,31.5855972 83.8876869,32.919014 83.5131315,34.1281402 C82.6234098,37.0003075 79.3497621,38.7874756 72.6031156,38.7874756 C58.2895262,38.7874756 53.3961536,38.0408355 38.7291551,34.1981762 C38.1955416,34.0583729 37.6911592,33.9169218 37.2155159,33.7739433 C33.9680199,32.7977452 32.1921606,31.7952864 31.6236243,30.9125923 C31.3638575,30.5092854 31.4283243,30.2033326 31.7582569,29.8288812 C31.8054865,29.7752789 31.8528119,29.7269719 31.8971923,29.6849971 L83.3880754,30.0555888 C83.4118419,30.1327689 83.4361938,30.2157415 83.4606888,30.3041082 Z" id="Path-27-Copy" fill="#6DB0F8"></path>
                        <path d="M11.4096386,21.3125 L23.1204819,21.3125 L23.1204819,23.9375 L11.4096386,23.9375 L11.4096386,21.3125 Z M27.0240964,21.3125 L32.2289157,21.3125 L32.2289157,23.9375 L27.0240964,23.9375 L27.0240964,21.3125 Z M34.8313253,21.3125 L40.0361446,21.3125 L40.0361446,23.9375 L34.8313253,23.9375 L34.8313253,21.3125 Z M42.6385542,21.3125 L47.8433735,21.3125 L47.8433735,23.9375 L42.6385542,23.9375 L42.6385542,21.3125 Z M50.4457831,21.3125 L55.6506024,21.3125 L55.6506024,23.9375 L50.4457831,23.9375 L50.4457831,21.3125 Z M58.253012,21.3125 L63.4578313,21.3125 L63.4578313,23.9375 L58.253012,23.9375 L58.253012,21.3125 Z M66.060241,21.3125 L71.2650602,21.3125 L71.2650602,23.9375 L66.060241,23.9375 L66.060241,21.3125 Z M73.8674699,21.3125 L79.0722892,21.3125 L79.0722892,23.9375 L73.8674699,23.9375 L73.8674699,21.3125 Z" id="Combined-Shape" fill="#6DB0F8"></path>
                    </g>
                    <g id="building" transform="translate(476.000000, 54.000000)">
                        <polygon id="Rectangle-15" fill="#FAFCFF" points="0 21 47 0 47 113 0 113"></polygon>
                        <path d="M44,1.34042553 L45.2238202,0.793612257 L47,1.94541387 L47,3.28583941 L44,4.62626494 L44,1.34042553 Z M3,22.9454139 L3,110 L44,110 L44,4.62626494 L3,22.9454139 Z M0,21 L47,0 L47,113 L0,113 L0,21 Z" id="Rectangle-15-Copy" fill="#6DB0F8"></path>
                        <path d="M8,29 L39,29 L39,32 L8,32 L8,29 Z M8,37 L39,37 L39,40 L8,40 L8,37 Z M8,45 L39,45 L39,48 L8,48 L8,45 Z M8,53 L39,53 L39,56 L8,56 L8,53 Z M8,61 L39,61 L39,64 L8,64 L8,61 Z M8,69 L39,69 L39,72 L8,72 L8,69 Z M8,77 L39,77 L39,80 L8,80 L8,77 Z" id="Combined-Shape" fill="#6DB0F8"></path>
                    </g>
                    <g id="ny" transform="translate(412.000000, 0.000000)">
                        <path d="M8.82519531,182.87793 L8.94628906,165.966797 L13.4746094,165.966797 L13.6601562,146.648437 L18.4951172,146.277344 L18.1953125,65.0136719 L21.4160156,65.0136719 L21.2304688,50.2089844 L26.5576172,50.0234375 L26.3720703,38.5039062 L29.59375,37.9462891 L29.84375,34.1396484 C29.84375,34.1396484 31.2645486,29.32799 33.4604492,28.4765625 C34.5401089,28.0579407 33.8933431,13.497129 35.9902344,13.7792969 C36.6249419,13.8647062 40.4170769,13.3966915 41.375,15.546875 C43.4031253,20.0992671 42.7265625,29.1445312 42.7265625,29.1445312 L46.1972656,33.1796875 L46.4404297,37.8291016 L50.3964844,39.6855469 L50.0253906,49.1699219 L54.9248047,50.9052734 L55.1748047,64.8886719 L57.6601562,65.6308594 L58.0957031,157.114258 L8.82519531,182.87793 Z" id="Path-512" fill="#FAFCFF"></path>
                        <path d="M63.998,182.15 L66.459,182.15 L66.459,167.38 L63.998,167.38 L63.998,182.15 Z M51.69,182.149 L51.69,167.38 L56.613,167.38 L61.536,167.38 L61.536,182.149 L51.69,182.149 Z M27.076,182.149 L27.076,164.919 L19.691,164.919 L19.691,145.227 L19.691,66.46 L29.537,66.46 L29.537,157.534 L29.537,159.995 L31.999,159.995 L44.307,159.995 L46.768,159.995 L46.768,157.534 L46.768,66.46 L56.613,66.46 L56.613,145.227 L56.613,164.919 L49.229,164.919 L49.229,182.149 L27.076,182.149 Z M14.769,182.149 L14.769,167.38 L19.691,167.38 L24.614,167.38 L24.614,182.149 L14.769,182.149 Z M9.845,182.15 L12.308,182.15 L12.308,167.38 L9.845,167.38 L9.845,182.15 Z M14.769,164.919 L17.231,164.919 L17.231,147.688 L14.769,147.688 L14.769,164.919 Z M22.152,51.691 L24.614,51.691 L27.076,51.691 L29.537,51.691 L29.537,63.998 L22.152,63.998 L22.152,51.691 Z M27.076,39.384 L28.307,39.384 L47.999,39.384 L49.229,39.384 L49.229,49.23 L46.768,49.23 L44.307,49.23 L44.307,66.46 L44.307,157.534 L31.999,157.534 L31.999,66.46 L31.999,49.23 L29.537,49.23 L27.076,49.23 L27.076,39.384 Z M30.768,36.922 L45.538,36.922 L45.538,35.076 L30.768,35.076 L30.768,36.922 Z M54.152,51.691 L54.152,63.998 L46.768,63.998 L46.768,51.691 L49.229,51.691 L51.69,51.691 L54.152,51.691 Z M59.075,164.919 L61.536,164.919 L61.536,147.688 L59.075,147.688 L59.075,164.919 Z M68.921,182.149 L68.921,164.919 L63.998,164.919 L63.998,145.227 L59.075,145.227 L59.075,63.998 L56.613,63.998 L56.613,49.23 L51.69,49.23 L51.69,39.384 L51.69,36.922 L49.229,36.922 L47.999,36.922 L47.999,32.614 L46.117,32.614 C45.359,31.489 43.075,26.986 43.075,13.586 L40.614,13.586 C40.614,24.572 42.113,30.013 43.315,32.614 L39.383,32.614 L39.383,16 L40.614,16 L40.614,13.586 L40.614,13.538 L39.383,13.538 L39.383,0 L36.921,0 L36.921,13.538 L35.691,13.538 L35.691,13.586 L35.691,16 L36.921,16 L36.921,32.614 L32.989,32.614 C34.191,30.013 35.691,24.572 35.691,13.586 L33.229,13.586 C33.229,26.986 30.944,31.489 30.187,32.614 L28.307,32.614 L28.307,36.922 L27.076,36.922 L24.614,36.922 L24.614,39.384 L24.614,49.23 L19.691,49.23 L19.691,63.998 L17.23,63.998 L17.23,145.227 L12.308,145.227 L12.308,164.919 L7.384,164.919 L7.384,182.149 L0,182.149 L0,184.61 L7.384,184.61 L12.308,184.61 L14.769,184.61 L27.076,184.61 L49.229,184.61 L61.536,184.61 L63.998,184.61 L68.921,184.61 L76.305,184.61 L76.305,182.149 L68.921,182.149 Z" id="Fill-1" fill="#6DB0F8"></path>
                        <path d="M18.461,179.687 L20.923,179.687 L20.923,169.841 L18.461,169.841 L18.461,179.687 Z M24.614,162.457 L27.076,162.457 L27.076,68.921 L24.614,68.921 L24.614,162.457 Z M24.614,61.537 L27.076,61.537 L27.076,54.153 L24.614,54.153 L24.614,61.537 Z M34.46,155.073 L36.921,155.073 L36.921,41.845 L34.46,41.845 L34.46,155.073 Z M29.537,46.768 L31.999,46.768 L31.999,41.845 L29.537,41.845 L29.537,46.768 Z M29.537,179.687 L31.999,179.687 L31.999,162.457 L29.537,162.457 L29.537,179.687 Z M34.46,179.687 L36.921,179.687 L36.921,162.457 L34.46,162.457 L34.46,179.687 Z M55.383,179.687 L57.844,179.687 L57.844,169.841 L55.383,169.841 L55.383,179.687 Z M49.228,162.457 L51.69,162.457 L51.69,68.921 L49.228,68.921 L49.228,162.457 Z M49.229,61.537 L51.691,61.537 L51.691,54.153 L49.229,54.153 L49.229,61.537 Z M39.383,155.073 L41.845,155.073 L41.845,41.845 L39.383,41.845 L39.383,155.073 Z M44.307,46.768 L46.768,46.768 L46.768,41.845 L44.307,41.845 L44.307,46.768 Z M44.307,179.687 L46.768,179.687 L46.768,162.457 L44.307,162.457 L44.307,179.687 Z M39.383,179.687 L41.845,179.687 L41.845,162.457 L39.383,162.457 L39.383,179.687 Z" id="Combined-Shape" fill="#6DB0F8"></path>
                    </g>
                </g>
            </g>
        </g>
    </g>
</svg>