<?xml version="1.0" encoding="UTF-8" standalone="no"?>
<svg width="12px" height="8px" viewBox="0 0 12 8" version="1.1" xmlns="http://www.w3.org/2000/svg" xmlns:xlink="http://www.w3.org/1999/xlink">
    <!-- Generator: Sketch 41.2 (35397) - http://www.bohemiancoding.com/sketch -->
    <title>link</title>
    <desc>Created with Sketch.</desc>
    <defs></defs>
    <g id="Page-1" stroke="none" stroke-width="1" fill="none" fill-rule="evenodd">
        <g id="Links" transform="translate(-469.000000, -302.000000)" fill="#1384FF">
            <g id="Group-2-Copy-3" transform="translate(348.000000, 295.000000)">
                <path d="M132.613281,10.6855469 L129.009766,7.08789062 C128.951172,7.02929658 128.88086,7 128.798828,7 C128.716796,7 128.646485,7.02929658 128.587891,7.08789062 C128.529297,7.14648467 128.5,7.21679646 128.5,7.29882812 C128.5,7.38085979 128.529297,7.45117158 128.587891,7.50976562 L131.675781,10.5976562 L121.902344,10.5976562 C121.816406,10.5976562 121.744141,10.6269528 121.685547,10.6855469 C121.626953,10.7441409 121.597656,10.8164058 121.597656,10.9023438 C121.597656,10.9843754 121.626953,11.0546872 121.685547,11.1132812 C121.744141,11.1718753 121.816406,11.2011719 121.902344,11.2011719 L131.675781,11.2011719 L128.587891,14.2890625 C128.529297,14.3476565 128.5,14.4179683 128.5,14.5 C128.5,14.5820317 128.529297,14.6523435 128.587891,14.7109375 C128.615235,14.7421877 128.647461,14.7646484 128.68457,14.7783203 C128.72168,14.7919923 128.759765,14.7988281 128.798828,14.7988281 C128.837891,14.7988281 128.875976,14.7919923 128.913086,14.7783203 C128.950195,14.7646484 128.982422,14.7421877 129.009766,14.7109375 L132.613281,11.1132812 C132.671875,11.0546872 132.701172,10.9833989 132.701172,10.8994141 C132.701172,10.8154293 132.671875,10.7441409 132.613281,10.6855469 Z" id="link"></path>
            </g>
        </g>
    </g>
</svg>