<?xml version="1.0" encoding="UTF-8" standalone="no"?>
<svg width="35px" height="26px" viewBox="0 0 35 26" version="1.1" xmlns="http://www.w3.org/2000/svg" xmlns:xlink="http://www.w3.org/1999/xlink">
    <!-- Generator: Sketch 41.2 (35397) - http://www.bohemiancoding.com/sketch -->
    <title>logo</title>
    <desc>Created with Sketch.</desc>
    <defs></defs>
    <g id="Page-1" stroke="none" stroke-width="1" fill="none" fill-rule="evenodd">
        <g id="Tasks" transform="translate(-31.000000, -20.000000)" fill="#1384FF">
            <g id="Group-15" transform="translate(31.000000, 20.000000)">
                <path d="M29.792,14.9629 C30.204,15.7399 30.429,16.6159 30.429,17.5209 C30.429,20.5419 27.971,22.9999 24.949,22.9999 L8.48,22.9999 C5.458,22.9999 3,20.5419 3,17.5209 C3,14.6479 5.248,12.2499 8.118,12.0619 L10.462,11.9079 L10.874,9.5959 C11.557,5.7739 14.87,2.9999 18.753,2.9999 C21.218,2.9999 23.421,4.1119 24.889,5.8689 L27.013,3.7449 C24.998,1.4509 22.048,-0.0001 18.753,-0.0001 C13.336,-0.0001 8.841,3.9159 7.921,9.0679 C3.5,9.3589 0,13.0259 0,17.5209 C0,22.2029 3.797,25.9999 8.48,25.9999 L24.949,25.9999 C29.632,25.9999 33.429,22.2029 33.429,17.5209 C33.429,15.7639 32.887,14.1379 31.972,12.7849 L29.792,14.9629 Z M33.7422,4.0117 C33.3742,3.6437 32.8692,3.4587 32.3652,3.4587 C31.8612,3.4587 31.3562,3.6437 30.9882,4.0117 L28.6942,6.3057 L26.3822,8.6177 L19.7622,15.2387 L16.6382,12.1157 C16.2702,11.7467 15.7662,11.5627 15.2622,11.5627 C14.7572,11.5627 14.2532,11.7467 13.8852,12.1157 C13.5152,12.4837 13.3122,12.9727 13.3122,13.4917 C13.3122,14.0117 13.5152,14.5007 13.8852,14.8687 L18.3632,19.3477 C18.5592,19.5567 18.8022,19.7177 19.0502,19.8087 C19.2762,19.8967 19.5152,19.9407 19.7622,19.9407 C20.0062,19.9407 20.2462,19.8967 20.4512,19.8167 C20.7192,19.7177 20.9632,19.5567 21.1602,19.3477 L27.7272,12.7837 L29.8792,10.6347 L33.7422,6.7747 C34.1102,6.4067 34.3122,5.9157 34.3122,5.3937 C34.3122,4.8707 34.1102,4.3797 33.7422,4.0117 Z" id="logo"></path>
            </g>
        </g>
    </g>
</svg>