<?xml version="1.0" encoding="UTF-8" standalone="no"?>
<svg width="10px" height="14px" viewBox="0 0 10 14" version="1.1" xmlns="http://www.w3.org/2000/svg" xmlns:xlink="http://www.w3.org/1999/xlink">
    <!-- Generator: Sketch 41.2 (35397) - http://www.bohemiancoding.com/sketch -->
    <title>priority</title>
    <desc>Created with Sketch.</desc>
    <defs></defs>
    <g id="Page-1" stroke="none" stroke-width="1" fill="none" fill-rule="evenodd">
        <g id="Tasks" transform="translate(-283.000000, -183.000000)" fill="#F89F1C">
            <g id="Group-5" transform="translate(31.000000, 86.000000)">
                <g id="Group-4" transform="translate(10.000000, 84.000000)">
                    <g id="Group-6">
                        <path d="M250.848633,26.6972656 C250.798502,26.6972656 250.750651,26.6870118 250.705078,26.6665039 C250.659505,26.645996 250.61849,26.6175132 250.582031,26.5810547 L246.651367,21.9873047 L242.713867,26.5810547 C242.668294,26.6357425 242.610189,26.6722004 242.539551,26.6904297 C242.468912,26.7086589 242.399414,26.7041017 242.331055,26.6767578 C242.262695,26.6539712 242.206869,26.6118167 242.163574,26.550293 C242.12028,26.4887692 242.098633,26.4215498 242.098633,26.3486328 L242.098633,13.75 C242.098633,13.6542964 242.132812,13.572266 242.201172,13.5039062 C242.269532,13.4355465 242.351562,13.4013672 242.447266,13.4013672 L250.848633,13.4013672 C250.944336,13.4013672 251.026367,13.4355465 251.094727,13.5039062 C251.163086,13.572266 251.197266,13.6542964 251.197266,13.75 L251.197266,26.3486328 C251.197266,26.4215498 251.176758,26.4887692 251.135742,26.550293 C251.094726,26.6118167 251.040039,26.6539712 250.97168,26.6767578 C250.95345,26.6858724 250.934082,26.691569 250.913574,26.6938477 C250.893066,26.6961263 250.871419,26.6972656 250.848633,26.6972656 Z M246.651367,21.0986328 C246.701498,21.0986328 246.749349,21.1100259 246.794922,21.1328125 C246.840495,21.1555991 246.88151,21.1852212 246.917969,21.2216797 L250.5,25.4052734 L250.5,14.0986328 L242.802734,14.0986328 L242.802734,25.4052734 L246.384766,21.2216797 C246.416667,21.1852212 246.456543,21.1555991 246.504395,21.1328125 C246.552246,21.1100259 246.601237,21.0986328 246.651367,21.0986328 Z" id="priority"></path>
                    </g>
                </g>
            </g>
        </g>
    </g>
</svg>