<?xml version="1.0" encoding="UTF-8" standalone="no"?>
<svg width="253px" height="105px" viewBox="0 0 253 105" version="1.1" xmlns="http://www.w3.org/2000/svg" xmlns:xlink="http://www.w3.org/1999/xlink">
    <!-- Generator: Sketch 41.2 (35397) - http://www.bohemiancoding.com/sketch -->
    <title>sparks</title>
    <desc>Created with Sketch.</desc>
    <defs></defs>
    <g id="0.1" stroke="none" stroke-width="1" fill="none" fill-rule="evenodd">
        <g id="Welcome-Back" transform="translate(-594.000000, -191.000000)" fill="#FDD37B">
            <g id="Graphic" transform="translate(538.000000, 191.000000)">
                <path d="M292,15.2426407 C298.985281,12.7426407 300.485281,6.75735931 300.485281,6.75735931 C300.485281,6.75735931 302.485281,13.7426407 308.970563,15.2426407 C302.485281,16.2426407 300.485281,23.7279221 300.485281,23.7279221 C300.485281,23.7279221 298.985281,18.2426407 292,15.2426407 Z M56,65.2426407 C62.9852814,62.7426407 64.4852814,56.7573593 64.4852814,56.7573593 C64.4852814,56.7573593 66.4852814,63.7426407 72.9705627,65.2426407 C66.4852814,66.2426407 64.4852814,73.7279221 64.4852814,73.7279221 C64.4852814,73.7279221 62.9852814,68.2426407 56,65.2426407 Z M135.242641,5.24264069 C139.558505,3.69801286 140.485281,-7.10542736e-15 140.485281,-7.10542736e-15 C140.485281,-7.10542736e-15 141.720984,4.31586399 145.727922,5.24264069 C141.720984,5.86049182 140.485281,10.4852814 140.485281,10.4852814 C140.485281,10.4852814 139.558505,7.09619408 135.242641,5.24264069 Z M275.242641,99.2426407 C279.558505,97.6980129 280.485281,94 280.485281,94 C280.485281,94 281.720984,98.315864 285.727922,99.2426407 C281.720984,99.8604918 280.485281,104.485281 280.485281,104.485281 C280.485281,104.485281 279.558505,101.096194 275.242641,99.2426407 Z M225.242641,25.2426407 C229.558505,23.6980129 230.485281,20 230.485281,20 C230.485281,20 231.720984,24.315864 235.727922,25.2426407 C231.720984,25.8604918 230.485281,30.4852814 230.485281,30.4852814 C230.485281,30.4852814 229.558505,27.0961941 225.242641,25.2426407 Z" id="sparks"></path>
            </g>
        </g>
    </g>
</svg>