<?xml version="1.0" encoding="UTF-8" standalone="no"?>
<svg width="110px" height="140px" viewBox="0 0 110 140" version="1.1" xmlns="http://www.w3.org/2000/svg" xmlns:xlink="http://www.w3.org/1999/xlink">
    <!-- Generator: Sketch 41.2 (35397) - http://www.bohemiancoding.com/sketch -->
    <title>tablet</title>
    <desc>Created with Sketch.</desc>
    <defs></defs>
    <g id="0.1" stroke="none" stroke-width="1" fill="none" fill-rule="evenodd">
        <g id="Welcome-Back" transform="translate(-664.000000, -239.000000)">
            <g id="Graphic" transform="translate(538.000000, 191.000000)">
                <g id="tablet" transform="translate(126.000000, 48.000000)">
                    <rect id="Rectangle-2" fill="#F9FBFD" x="0" y="0" width="110" height="140" rx="13"></rect>
                    <rect id="Rectangle-2-Copy" fill="#FFFFFF" x="8" y="21" width="95" height="109" rx="7"></rect>
                    <path d="M3,12.9981255 L3,127.001874 C3,132.526382 7.4739128,137 12.9960904,137 L97.0039096,137 C102.525409,137 107,132.524356 107,127.001874 L107,12.9981255 C107,7.47361848 102.526087,3 97.0039096,3 L12.9960904,3 C7.47459099,3 3,7.47564386 3,12.9981255 Z M0,12.9981255 C0,5.81945902 5.81706741,0 12.9960904,0 L97.0039096,0 C104.181452,0 110,5.815275 110,12.9981255 L110,127.001874 C110,134.180541 104.182933,140 97.0039096,140 L12.9960904,140 C5.81854786,140 0,134.184725 0,127.001874 L0,12.9981255 Z" id="Rectangle-2-Copy-3" fill="#6DB0F8"></path>
                    <path d="M11,28.0051023 L11,122.994898 C11,125.210549 12.7904896,127 15.0048555,127 L95.9951445,127 C98.2083649,127 100,125.207874 100,122.994898 L100,28.0051023 C100,25.7894513 98.2095104,24 95.9951445,24 L15.0048555,24 C12.7916351,24 11,25.7921257 11,28.0051023 Z M8,28.0051023 C8,24.1362911 11.1337613,21 15.0048555,21 L95.9951445,21 C99.8638194,21 103,24.1300528 103,28.0051023 L103,122.994898 C103,126.863709 99.8662387,130 95.9951445,130 L15.0048555,130 C11.1361806,130 8,126.869947 8,122.994898 L8,28.0051023 Z" id="Rectangle-2-Copy-2" fill="#6DB0F8"></path>
                    <path d="M25,46 C25,44.8954305 25.8947304,44 26.9963074,44 L83.0036926,44 C84.1062227,44 85,44.8877296 85,46 C85,47.1045695 84.1052696,48 83.0036926,48 L26.9963074,48 C25.8937773,48 25,47.1122704 25,46 Z M25,60 C25,58.8954305 25.8947304,58 26.9963074,58 L83.0036926,58 C84.1062227,58 85,58.8877296 85,60 C85,61.1045695 84.1052696,62 83.0036926,62 L26.9963074,62 C25.8937773,62 25,61.1122704 25,60 Z M25,74 C25,72.8954305 25.8951323,72 27.0096061,72 L65.8475367,72 C66.9574115,72 67.8571429,72.8877296 67.8571429,74 C67.8571429,75.1045695 66.9620105,76 65.8475367,76 L27.0096061,76 C25.8997313,76 25,75.1122704 25,74 Z" id="Combined-Shape" fill="#6DB0F8"></path>
                    <circle id="Oval-3" fill="#6DB0F8" cx="44" cy="12" r="3"></circle>
                    <path d="M52,12 C52,12.5491144 52.4518556,13 53.008788,13 L67.991212,13 C68.5504804,13 69,12.55164 69,12 C69,11.4508856 68.5481444,11 67.991212,11 L53.008788,11 C52.4495196,11 52,11.44836 52,12 Z M50,12 C50,10.3431458 51.3455902,9 53.008788,9 L67.991212,9 C69.6529197,9 71,10.3465171 71,12 C71,13.6568542 69.6544098,15 67.991212,15 L53.008788,15 C51.3470803,15 50,13.6534829 50,12 Z" id="Rectangle-13" fill="#6DB0F8"></path>
                </g>
            </g>
        </g>
    </g>
</svg>