<?xml version="1.0" encoding="UTF-8" standalone="no"?>
<svg width="14px" height="11px" viewBox="0 0 14 11" version="1.1" xmlns="http://www.w3.org/2000/svg" xmlns:xlink="http://www.w3.org/1999/xlink">
    <!-- Generator: Sketch 41.2 (35397) - http://www.bohemiancoding.com/sketch -->
    <title>check</title>
    <desc>Created with Sketch.</desc>
    <defs></defs>
    <g id="Page-1" stroke="none" stroke-width="1" fill="none" fill-rule="evenodd">
        <g id="Tasks" transform="translate(-56.000000, -231.000000)" fill="#43D24F">
            <g id="Group-5" transform="translate(31.000000, 86.000000)">
                <g id="Group-4" transform="translate(10.000000, 84.000000)">
                    <g id="Group-6">
                        <g id="Group-12" transform="translate(15.000000, 57.000000)">
                            <path d="M3.84863281,14.9472656 C3.80305967,14.9472656 3.75862652,14.9392904 3.71533203,14.9233398 C3.67203754,14.9073892 3.63444026,14.8811851 3.60253906,14.8447266 L0.102539062,11.3447266 C0.0341793457,11.2763668 0,11.1943364 0,11.0986328 C0,11.0029292 0.0341793457,10.9208988 0.102539062,10.8525391 C0.170898779,10.7841793 0.252929209,10.75 0.348632812,10.75 C0.444336416,10.75 0.526366846,10.7841793 0.594726562,10.8525391 L3.84863281,14.1064453 L13.4052734,4.54980469 C13.4736332,4.48144497 13.5556636,4.44726562 13.6513672,4.44726562 C13.7470708,4.44726562 13.8291012,4.48144497 13.8974609,4.54980469 C13.9658207,4.6181644 14,4.70133415 14,4.79931641 C14,4.89729867 13.9658207,4.98046841 13.8974609,5.04882812 L4.09472656,14.8447266 C4.06282536,14.8811851 4.02522808,14.9073892 3.98193359,14.9233398 C3.93863911,14.9392904 3.89420596,14.9472656 3.84863281,14.9472656 Z" id="check"></path>
                        </g>
                    </g>
                </g>
            </g>
        </g>
    </g>
</svg>