<?xml version="1.0" encoding="UTF-8" standalone="no"?>
<svg width="11px" height="15px" viewBox="0 0 11 15" version="1.1" xmlns="http://www.w3.org/2000/svg" xmlns:xlink="http://www.w3.org/1999/xlink">
    <!-- Generator: Sketch 41.2 (35397) - http://www.bohemiancoding.com/sketch -->
    <title>delete</title>
    <desc>Created with Sketch.</desc>
    <defs></defs>
    <g id="Page-1" stroke="none" stroke-width="1" fill="none" fill-rule="evenodd">
        <g id="Links" transform="translate(-553.000000, -92.000000)" fill="#A8AEB7">
            <path d="M562.848633,94.0986328 L560.401367,94.0986328 L560.401367,93.75 C560.401367,93.4583319 560.298829,93.209962 560.09375,93.0048828 C559.888671,92.7998037 559.640301,92.6972656 559.348633,92.6972656 L557.947266,92.6972656 C557.660155,92.6972656 557.414064,92.7998037 557.208984,93.0048828 C557.003905,93.209962 556.901367,93.4583319 556.901367,93.75 L556.901367,94.0986328 L554.447266,94.0986328 C554.160155,94.0986328 553.914064,94.2011708 553.708984,94.40625 C553.503905,94.6113292 553.401367,94.8596991 553.401367,95.1513672 L553.401367,95.8486328 C553.401367,96.0764985 553.467447,96.2804353 553.599609,96.4604492 C553.731771,96.6404631 553.898111,96.7669267 554.098633,96.8398438 L554.098633,105.651367 C554.098633,105.938478 554.201171,106.184569 554.40625,106.389648 C554.611329,106.594728 554.859699,106.697266 555.151367,106.697266 L562.151367,106.697266 C562.438478,106.697266 562.684569,106.594728 562.889648,106.389648 C563.094728,106.184569 563.197266,105.938478 563.197266,105.651367 L563.197266,96.8398438 C563.402345,96.7669267 563.570963,96.6404631 563.703125,96.4604492 C563.835287,96.2804353 563.901367,96.0764985 563.901367,95.8486328 L563.901367,95.1513672 C563.901367,94.8596991 563.798829,94.6113292 563.59375,94.40625 C563.388671,94.2011708 563.140301,94.0986328 562.848633,94.0986328 Z M557.598633,93.75 C557.598633,93.6542964 557.632812,93.572266 557.701172,93.5039062 C557.769532,93.4355465 557.851562,93.4013672 557.947266,93.4013672 L559.348633,93.4013672 C559.444336,93.4013672 559.526367,93.4355465 559.594727,93.5039062 C559.663086,93.572266 559.697266,93.6542964 559.697266,93.75 L559.697266,94.0986328 L557.598633,94.0986328 L557.598633,93.75 Z M562.151367,106 L555.151367,106 C555.055664,106 554.973633,105.965821 554.905273,105.897461 C554.836914,105.829101 554.802734,105.747071 554.802734,105.651367 L554.802734,96.9013672 L562.5,96.9013672 L562.5,105.651367 C562.5,105.747071 562.465821,105.829101 562.397461,105.897461 C562.329101,105.965821 562.247071,106 562.151367,106 Z M563.197266,95.8486328 C563.197266,95.9443364 563.163086,96.0263668 563.094727,96.0947266 C563.026367,96.1630863 562.944336,96.1972656 562.848633,96.1972656 L554.447266,96.1972656 C554.351562,96.1972656 554.269532,96.1630863 554.201172,96.0947266 C554.132812,96.0263668 554.098633,95.9443364 554.098633,95.8486328 L554.098633,95.1513672 C554.098633,95.0556636 554.132812,94.9736332 554.201172,94.9052734 C554.269532,94.8369137 554.351562,94.8027344 554.447266,94.8027344 L562.848633,94.8027344 C562.944336,94.8027344 563.026367,94.8369137 563.094727,94.9052734 C563.163086,94.9736332 563.197266,95.0556636 563.197266,95.1513672 L563.197266,95.8486328 Z M560.75,97.5986328 C560.654296,97.5986328 560.572266,97.6328122 560.503906,97.7011719 C560.435547,97.7695316 560.401367,97.851562 560.401367,97.9472656 L560.401367,104.947266 C560.401367,105.047527 560.435547,105.131836 560.503906,105.200195 C560.572266,105.268555 560.654296,105.302734 560.75,105.302734 C560.845704,105.302734 560.927734,105.268555 560.996094,105.200195 C561.064453,105.131836 561.098633,105.047527 561.098633,104.947266 L561.098633,97.9472656 C561.098633,97.851562 561.064453,97.7695316 560.996094,97.7011719 C560.927734,97.6328122 560.845704,97.5986328 560.75,97.5986328 Z M558.651367,97.5986328 C558.555664,97.5986328 558.473633,97.6328122 558.405273,97.7011719 C558.336914,97.7695316 558.302734,97.851562 558.302734,97.9472656 L558.302734,104.947266 C558.302734,105.047527 558.336914,105.131836 558.405273,105.200195 C558.473633,105.268555 558.555664,105.302734 558.651367,105.302734 C558.747071,105.302734 558.829101,105.268555 558.897461,105.200195 C558.965821,105.131836 559,105.047527 559,104.947266 L559,97.9472656 C559,97.851562 558.965821,97.7695316 558.897461,97.7011719 C558.829101,97.6328122 558.747071,97.5986328 558.651367,97.5986328 Z M556.552734,97.5986328 C556.452473,97.5986328 556.368164,97.6328122 556.299805,97.7011719 C556.231445,97.7695316 556.197266,97.851562 556.197266,97.9472656 L556.197266,104.947266 C556.197266,105.047527 556.231445,105.131836 556.299805,105.200195 C556.368164,105.268555 556.452473,105.302734 556.552734,105.302734 C556.648438,105.302734 556.730468,105.268555 556.798828,105.200195 C556.867188,105.131836 556.901367,105.047527 556.901367,104.947266 L556.901367,97.9472656 C556.901367,97.851562 556.867188,97.7695316 556.798828,97.7011719 C556.730468,97.6328122 556.648438,97.5986328 556.552734,97.5986328 Z" id="delete"></path>
        </g>
    </g>
</svg>