<?xml version="1.0" encoding="UTF-8" standalone="no"?>
<svg width="10px" height="6px" viewBox="0 0 10 6" version="1.1" xmlns="http://www.w3.org/2000/svg" xmlns:xlink="http://www.w3.org/1999/xlink">
    <!-- Generator: Sketch 41.2 (35397) - http://www.bohemiancoding.com/sketch -->
    <title>down</title>
    <desc>Created with Sketch.</desc>
    <defs></defs>
    <g id="Page-1" stroke="none" stroke-width="1" fill="none" fill-rule="evenodd">
        <g id="Tasks" transform="translate(-1400.000000, -33.000000)" fill="#007AFF">
            <g id="Group-15" transform="translate(31.000000, 20.000000)">
                <g id="Group" transform="translate(1298.000000, 5.000000)">
                    <path d="M71,8.50097656 C71,8.46842432 71.0056966,8.43668635 71.0170898,8.40576172 C71.0284831,8.37483708 71.0472004,8.34798188 71.0732422,8.32519531 C71.1220706,8.27636694 71.1806637,8.25195312 71.2490234,8.25195312 C71.3173832,8.25195312 71.3759763,8.27636694 71.4248047,8.32519531 L75.7509766,12.6464844 L80.0722656,8.32519531 C80.121094,8.27636694 80.180501,8.25195312 80.2504883,8.25195312 C80.3204756,8.25195312 80.3798826,8.27636694 80.4287109,8.32519531 C80.4775393,8.37402368 80.5019531,8.43261685 80.5019531,8.50097656 C80.5019531,8.56933628 80.4775393,8.62792944 80.4287109,8.67675781 L75.9267578,13.1787109 C75.8779294,13.2275393 75.8193363,13.2519531 75.7509766,13.2519531 C75.6826168,13.2519531 75.6240237,13.2275393 75.5751953,13.1787109 L71.0732422,8.67675781 C71.0472004,8.65397124 71.0284831,8.62711604 71.0170898,8.59619141 C71.0056966,8.56526677 71,8.53352881 71,8.50097656 Z" id="down"></path>
                </g>
            </g>
        </g>
    </g>
</svg>