<?xml version="1.0" encoding="UTF-8" standalone="no"?>
<svg width="20px" height="16px" viewBox="0 0 20 16" version="1.1" xmlns="http://www.w3.org/2000/svg" xmlns:xlink="http://www.w3.org/1999/xlink">
    <!-- Generator: Sketch 41.2 (35397) - http://www.bohemiancoding.com/sketch -->
    <title>icon-folder</title>
    <desc>Created with Sketch.</desc>
    <defs></defs>
    <g id="Page-1" stroke="none" stroke-width="1" fill="none" fill-rule="evenodd">
        <g id="Links" transform="translate(-51.000000, -115.000000)" fill="#1384FF">
            <g id="Group-4" transform="translate(51.000000, 113.000000)">
                <path d="M18.4960938,3.99609375 L10.9960938,3.99609375 C10.9570311,3.99609375 10.9065758,3.97819028 10.8447266,3.94238281 C10.7828773,3.90657534 10.7421876,3.86914082 10.7226562,3.83007812 L10.1660156,2.7265625 C10.0683589,2.51822813 9.90722769,2.34570381 9.68261719,2.20898438 C9.45800669,2.07226494 9.23177197,2.00390625 9.00390625,2.00390625 L2.00195312,2.00390625 C1.76757695,2.00390625 1.53971465,2.07226494 1.31835938,2.20898438 C1.0970041,2.34570381 0.934245312,2.51822813 0.830078125,2.7265625 L0.2734375,3.83007812 C0.195312109,3.98632891 0.130208594,4.17675669 0.078125,4.40136719 C0.0260414063,4.62597769 0,4.826171 0,5.00195312 L0,15.5 C0,15.9166687 0.14648291,16.2714829 0.439453125,16.5644531 C0.73242334,16.8574233 1.0872375,17.0039062 1.50390625,17.0039062 L18.4960938,17.0039062 C18.9127625,17.0039062 19.2675767,16.8574233 19.5605469,16.5644531 C19.8535171,16.2714829 20,15.9166687 20,15.5 L20,5.5 C20,5.08333125 19.8535171,4.72851709 19.5605469,4.43554688 C19.2675767,4.14257666 18.9127625,3.99609375 18.4960938,3.99609375 Z M19.0039062,15.5 C19.0039062,15.6367194 18.9550786,15.7539058 18.8574219,15.8515625 C18.7597651,15.9492192 18.6393236,15.9980469 18.4960938,15.9980469 L1.50390625,15.9980469 C1.36067637,15.9980469 1.24023486,15.9492192 1.14257812,15.8515625 C1.04492139,15.7539058 0.99609375,15.6367194 0.99609375,15.5 L0.99609375,5.00195312 C0.99609375,4.90429639 1.01399722,4.78059971 1.04980469,4.63085938 C1.08561216,4.48111904 1.12630186,4.36393271 1.171875,4.27929688 L1.71875,3.16601562 C1.73828135,3.13346338 1.77897104,3.09765645 1.84082031,3.05859375 C1.90266958,3.01953105 1.95637998,3 2.00195312,3 L9.00390625,3 C9.04296895,3 9.09342417,3.01953105 9.15527344,3.05859375 C9.21712271,3.09765645 9.2578124,3.13346338 9.27734375,3.16601562 L9.83398438,4.27929688 C9.93164111,4.4811208 10.0927723,4.65201753 10.3173828,4.79199219 C10.5419933,4.93196685 10.768228,5.00195312 10.9960938,5.00195312 L18.4960938,5.00195312 C18.6393236,5.00195312 18.7597651,5.05078076 18.8574219,5.1484375 C18.9550786,5.24609424 19.0039062,5.36328057 19.0039062,5.5 L19.0039062,15.5 Z" id="icon-folder"></path>
            </g>
        </g>
    </g>
</svg>