<?xml version="1.0" encoding="UTF-8" standalone="no"?>
<svg width="459px" height="266px" viewBox="0 0 459 266" version="1.1" xmlns="http://www.w3.org/2000/svg" xmlns:xlink="http://www.w3.org/1999/xlink">
    <!-- Generator: Sketch 41.2 (35397) - http://www.bohemiancoding.com/sketch -->
    <title>graph-mountain</title>
    <desc>Created with Sketch.</desc>
    <defs></defs>
    <g id="Landing" stroke="none" stroke-width="1" fill="none" fill-rule="evenodd">
        <g id="Doable-landing" transform="translate(-490.000000, -89.000000)">
            <g id="Graphic-Copy" transform="translate(719.000000, 229.500000) scale(-1, 1) translate(-719.000000, -229.500000) translate(317.000000, 43.000000)">
                <g id="graph-mountain" transform="translate(401.901149, 179.048073) scale(-1, 1) translate(-401.901149, -179.048073) translate(172.401149, 46.048073)">
                    <polygon id="Path-17" fill="#F4F7FB" points="15.6704696 243.98899 194.290378 2.10813539 246.980042 75.2112665 273.220317 35.0245494 458.531892 248.119762 382.12575 265.352939 37.1984555 259.196431"></polygon>
                    <polygon id="Path-22" fill="#FFFFFF" points="146.341846 65.9242384 181.343301 45.3857225 212.834876 69.3431191 208.951834 51.0808532 240.7697 65.908018 192.855419 2.1369715"></polygon>
                    <path d="M19.1929687,242.020926 L193.024874,2.11173991 L125.614265,242.020926 L108.621902,260.411152 L19.1929687,242.020926 Z M205.816918,46.5337599 L342.253367,255.447737 L290.154993,256.817452 L205.816918,46.5337599 Z M272.445151,36.4951908 L247.333374,73.4342415 L257.388901,89.8852395 L272.445151,36.4951908 Z" id="Combined-Shape" fill="#E8F0F8"></path>
                    <path d="M246.894249,73.9497576 L338.139292,197.20215 L336.531847,198.392158 L192.501388,3.83804347 L2.17459526,263.777394 L0.560911205,262.59586 L192.492513,0.464735637 L245.639533,72.2549074 L272.714559,33.5965186 L458.937323,248.116635 L457.427009,249.427723 L272.883358,36.8418676 L246.894249,73.9497576 Z" id="Combined-Shape" fill="#6EB1F9" opacity="0.652460354"></path>
                    <path d="M379.996643,213.31999 C379.996643,213.31999 392.914876,212.087246 399.653413,215.165501 C406.391951,218.243755 414.782673,222.399758 414.782673,225.486123 C414.782673,228.572487 419.691458,235.310223 419.691458,235.310223 C419.691458,235.310223 424.934646,232.573497 429.732563,232.573497 C434.530481,232.573497 439.602411,233.607992 439.602411,233.607992 C439.602411,233.607992 442.236173,230.647786 443.262818,228.066954 C444.289462,225.486123 437.565347,226.320792 431.801175,225.09233 C426.037004,223.863867 423.693478,219.15029 413.421626,211.796182 C403.149773,204.442074 393.451183,210.280484 388.601888,195.489364 C383.752593,180.698245 379.996643,148.769467 379.996643,148.769467 L379.996643,213.31999 Z M31.9001807,240.640397 C31.9001807,240.640397 34.6024459,235.31563 40.3747295,232.697853 C46.1470131,230.080075 47.9253884,229.909762 47.9253884,229.909762 C47.9253884,229.909762 52.1347207,218.904282 60.9779241,218.904282 C69.8211274,218.904282 75.8169473,219.871192 75.8169473,219.871192 C75.8169473,219.871192 82.3094143,208.540405 94.1802723,205.958673 C106.05113,203.37694 108.94268,202.864198 109.969325,188.892204 C110.995969,174.92021 115.511763,125.041858 115.511763,125.041858 L115.861489,236.623167 C115.861489,236.623167 101.440695,228.243575 89.6293261,229.611488 C77.8179575,230.979401 72.514379,236.1699 72.514379,236.1699 C72.514379,236.1699 66.9809548,232.517627 60.190139,234.570397 C53.3993231,236.623167 46.8825195,243.583482 46.8825195,243.583482 L31.9001807,240.640397 Z" id="Combined-Shape" fill="#D8E7F6" transform="translate(237.633836, 184.312670) scale(-1, 1) translate(-237.633836, -184.312670) "></path>
                    <polygon id="Path-21" fill="#6EB1F9" opacity="0.500291511" points="215.278154 71.4552621 209.089174 53.0720574 239.219048 66.101366 240.01288 64.2656558 205.7607 49.4537049 211.408327 66.2289214 180.995891 44.4793377 145.609935 65.4696773 146.630291 67.1898149 180.893913 46.8652248"></polygon>
                </g>
            </g>
        </g>
    </g>
</svg>