<?xml version="1.0" encoding="UTF-8" standalone="no"?>
<svg width="797px" height="140px" viewBox="0 0 797 140" version="1.1" xmlns="http://www.w3.org/2000/svg" xmlns:xlink="http://www.w3.org/1999/xlink">
    <!-- Generator: Sketch 41.2 (35397) - http://www.bohemiancoding.com/sketch -->
    <title>graph-clouds-bg</title>
    <desc>Created with Sketch.</desc>
    <defs></defs>
    <g id="Landing" stroke="none" stroke-width="1" fill="none" fill-rule="evenodd">
        <g id="Doable-landing" transform="translate(-324.000000, -141.000000)" fill="#6DB0F8">
            <g id="Graphic-Copy" transform="translate(719.000000, 229.500000) scale(-1, 1) translate(-719.000000, -229.500000) translate(317.000000, 43.000000)">
                <g id="graph-clouds-bg">
                    <path d="M165.965007,166.084212 C164.996718,165.617804 163.751089,165.283108 162.194585,165.122502 C160.168276,164.913421 158.802315,165.047094 157.564857,165.441366 C157.486854,165.466219 157.353133,165.511839 157.225132,165.55611 C155.525462,160.28601 151.153647,156.380776 143.786639,154.817157 C139.362382,153.878125 135.537801,154.538516 132.392762,156.219001 C131.628862,156.627175 131.003981,157.03894 130.520555,157.409742 C130.474157,157.374634 130.425802,157.339817 130.375447,157.30538 C129.40001,156.638303 127.951092,156.329791 125.960953,156.499777 C121.874172,156.496337 119.646151,157.673533 116.903049,161.133619 C112.364436,159.567734 108.23332,160.16834 104.708928,162.138541 C104.083391,162.488228 103.547828,162.839713 103.106384,163.166222 C103.025151,163.025912 102.935898,162.878757 102.838214,162.725411 C102.062884,161.508278 100.990842,160.299099 99.5766943,159.1776 C98.9350239,158.668719 98.2345097,158.18838 97.4728612,157.740972 C94.5955397,156.050778 91.6533095,156.122518 88.9885846,157.250358 C88.902407,157.286832 88.8189348,157.323384 88.7382284,157.359851 C88.639047,157.022119 88.5104583,156.650868 88.347052,156.251216 C87.5961282,154.41464 86.3256627,152.590087 84.4226333,150.902229 C82.8876438,149.540798 80.9966123,148.323736 78.7193161,147.283964 C73.4883549,144.895602 68.2884924,145.481193 63.5651838,147.886159 C62.6651803,148.344413 61.8571753,148.835747 61.1515653,149.328651 C60.7217324,149.628911 60.4166722,149.867349 60.247169,150.012807 C59.8280494,150.372469 59.77985,151.003797 60.1395126,151.422916 C60.4991752,151.842036 61.1305029,151.890236 61.5496225,151.530573 C61.6706315,151.426731 61.9237443,151.228895 62.2968943,150.968231 C62.929589,150.526262 63.6589964,150.082722 64.4726616,149.668428 C68.6983116,147.516855 73.2831691,147.000524 77.8886409,149.103299 C79.9883484,150.061987 81.7117144,151.17114 83.0955421,152.398501 C84.765111,153.879295 85.8586268,155.449726 86.4958159,157.008134 C86.7144829,157.54294 86.8611998,158.034757 86.9498052,158.470048 C86.9999054,158.716175 87.0196002,158.878369 87.0227792,158.942504 C87.0619538,159.73285 87.9600795,160.166734 88.6035636,159.706179 C88.6418515,159.678776 88.7368001,159.616925 88.8830619,159.53184 C89.1386504,159.383158 89.4355256,159.232954 89.7681321,159.092179 C91.8983533,158.190567 94.1942468,158.134586 96.4598663,159.465455 C97.1412179,159.865695 97.7649774,160.293404 98.3339501,160.744631 C99.5690387,161.724126 100.492759,162.766011 101.151389,163.799943 C101.534155,164.400818 101.740018,164.849569 101.812487,165.072515 C102.044046,165.784897 102.947768,165.999168 103.474509,165.466577 C103.556039,165.384141 103.73836,165.218887 104.015549,164.998129 C104.490223,164.620091 105.048718,164.239882 105.68483,163.884283 C108.901248,162.086245 112.66565,161.607088 116.881264,163.256391 C117.298436,163.419604 117.773253,163.285471 118.043366,162.928105 C120.650638,159.478614 122.332939,158.496149 126.046057,158.496149 C127.690082,158.359367 128.682716,158.570724 129.246455,158.956252 C129.439214,159.088075 129.50329,159.17475 129.498072,159.160937 C129.756511,159.845036 130.637825,160.029439 131.148854,159.506341 C131.223288,159.430149 131.396978,159.272924 131.667053,159.061121 C132.132758,158.695896 132.689803,158.327888 133.335305,157.982978 C136.081731,156.515483 139.4308,155.937198 143.371397,156.773575 C150.431997,158.272161 154.28609,161.990339 155.562894,167.007918 C155.675669,167.451097 156.074707,167.761311 156.53201,167.761311 C157.023548,167.721944 157.243418,167.66525 157.531395,167.567721 C157.535289,167.566402 158.019503,167.395571 158.172012,167.34698 C159.14381,167.037351 160.23322,166.93074 161.989307,167.11194 C163.323992,167.249657 164.345889,167.524237 165.097081,167.886073 C165.451782,168.056927 165.711986,168.23081 165.892788,168.393695 C165.974152,168.466996 166.002885,168.501448 165.992245,168.484477 C166.449586,169.213916 167.553605,169.062906 167.798263,168.237445 C167.820709,168.161714 167.874557,168.000393 167.962867,167.765865 C168.114243,167.36385 168.306258,166.912972 168.541861,166.425598 C169.217905,165.027122 170.104134,163.627154 171.222476,162.322913 C174.40672,158.609361 178.798845,156.390687 184.660043,156.390687 C190.538409,156.390687 194.685039,159.011179 197.404567,163.492868 C199.25058,166.535032 200.286069,170.408621 200.286069,172.407004 C200.286069,172.959289 200.733784,173.407004 201.286069,173.407004 C201.838353,173.407004 202.286069,172.959289 202.286069,172.407004 C202.286069,170.050353 201.154502,165.817353 199.114396,162.455329 C196.050274,157.405763 191.27926,154.390687 184.660043,154.390687 C178.186248,154.390687 173.252453,156.882984 169.704205,161.021048 C168.466175,162.464873 167.488522,164.009262 166.741221,165.555142 C166.611466,165.823555 166.496088,166.075657 166.394427,166.309146 C166.261464,166.233311 166.118452,166.158124 165.965007,166.084212 Z M14.7304253,235.268955 C11.514123,228.815417 8.96340109,226.738632 1.9691239,225.818665 C1.42155545,225.746643 0.919277785,226.132149 0.847255344,226.679717 C0.775232902,227.227286 1.16073912,227.729564 1.70830757,227.801586 C8.31576688,228.670674 10.2437193,230.465016 13.4731979,237.256854 C13.7581985,237.856232 14.5373015,238.016785 15.0360519,237.578919 C19.2299829,233.896953 26.5068895,233.038281 32.8601074,236.200678 C33.234208,236.386892 33.6846525,236.320851 33.989555,236.035086 C34.0796388,235.950657 34.1699357,235.867633 34.2604431,235.786007 C38.9736285,231.535307 43.9219517,231.191142 48.5418956,233.140488 C49.1127986,233.381376 49.6230193,233.638829 50.0639752,233.894752 C50.3214129,234.044165 50.4934887,234.156037 50.571822,234.212009 C51.0211806,234.533094 51.6457482,234.429107 51.9668327,233.979748 C52.2879171,233.53039 52.1839304,232.905822 51.7345717,232.584738 C51.2655867,232.249629 50.440998,231.771052 49.3194007,231.297804 C44.1104549,229.099933 38.4256407,229.461915 33.1307841,234.114029 C26.6866228,231.167958 19.4659396,231.853018 14.7304253,235.268955 Z" id="Combined-Shape" opacity="0.306786381"></path>
                    <g id="Group-6" opacity="0.395347481" transform="translate(442.504452, 168.753823) scale(-1, 1) rotate(11.000000) translate(-442.504452, -168.753823) translate(95.004452, 65.253823)">
                        <path d="M33.5871153,178.315116 C33.2214204,178.477282 32.8902106,178.640112 32.5959935,178.797069 C32.4698652,178.421216 32.3129826,177.998948 32.121523,177.537877 C31.3281292,175.627234 30.195487,173.719179 28.6616794,171.938069 C26.2015051,169.081232 22.9477081,166.833856 18.8071379,165.430762 C12.5339951,163.305014 7.31061379,163.97068 3.21731775,166.391331 C1.79314509,167.233544 0.829235415,168.0872 0.320028486,168.687512 C-0.0372265621,169.108686 0.0145897334,169.739727 0.435763421,170.096982 C0.856937109,170.454237 1.48797828,170.402421 1.84523333,169.981247 C1.92593053,169.886112 2.11361014,169.692354 2.40726723,169.432286 C2.91226033,168.985055 3.52196091,168.534722 4.23536413,168.112837 C7.84069553,165.980753 12.4609031,165.391955 18.1652599,167.324962 C21.9596091,168.610734 24.9144983,170.651656 27.1461732,173.243152 C28.5336594,174.854348 29.5585633,176.580906 30.2744412,178.304877 C30.5236376,178.904989 30.7160335,179.460005 30.8584375,179.954723 C30.9414093,180.242971 30.9883009,180.440919 31.0060636,180.53329 C31.1454201,181.25798 31.994855,181.587251 32.5862403,181.145822 C32.6551034,181.094421 32.8084098,180.990164 33.0382459,180.850431 C33.4327631,180.610578 33.8886931,180.369208 34.3978677,180.143416 C37.1621632,178.9176 40.107711,178.667251 43.0307493,179.933606 C43.4600621,180.119599 43.8888892,180.338308 44.3165853,180.59145 C44.841472,180.902117 45.519809,180.674578 45.7511847,180.110233 C48.9530467,172.300623 56.3460917,166.33995 64.7602332,166.33995 C68.9229009,166.33995 71.9774382,167.090808 74.1028776,168.320923 C74.8186067,168.735157 75.3676602,169.170985 75.7720952,169.597711 C75.9951235,169.833031 76.113846,169.996813 76.1479674,170.057992 C76.4235036,170.552027 77.05363,170.719355 77.5379629,170.427101 C77.5959476,170.392112 77.7281958,170.319437 77.9279222,170.221355 C78.2726843,170.052049 78.6719013,169.881414 79.1186571,169.721544 C82.5747055,168.484814 86.2696372,168.6402 89.7533534,171.135874 C90.8187314,171.899092 91.8409561,172.873146 92.8131401,174.074685 C93.0617945,174.382001 93.4681501,174.513992 93.8499322,174.411451 C100.011242,172.756614 104.358863,173.399935 107.679505,175.49667 C108.183722,175.815045 108.63656,176.149126 109.114524,176.541253 C109.251143,176.653337 109.947497,177.246348 110.112003,177.373187 C111.338321,178.318713 112.382547,177.652653 112.382547,176.08011 C112.382547,174.477753 114.019017,171.946179 116.483689,170.37408 C119.719239,168.310275 123.952343,167.936136 128.939725,169.827654 C129.447878,170.020376 130.016925,169.771976 130.221092,169.268313 C133.537035,161.088142 141.121089,155.126748 149.726481,155.126748 C153.821921,155.126748 157.549701,156.486598 160.840854,158.761214 C161.997342,159.560498 163.014911,160.417021 163.882777,161.271697 C164.184579,161.568911 164.445345,161.843676 164.663799,162.088536 C164.791045,162.231164 164.873608,162.329122 164.91025,162.374941 C165.255181,162.806267 165.88446,162.876304 166.315785,162.531373 C166.747111,162.186443 166.817148,161.557164 166.472218,161.125838 C166.258025,160.857997 165.859958,160.411811 165.28612,159.846695 C164.339618,158.914579 163.234439,157.984311 161.977964,157.115924 C158.37494,154.625763 154.265662,153.126748 149.726481,153.126748 C140.559339,153.126748 132.524232,159.202067 128.744005,167.634724 C123.550121,165.898895 118.979524,166.409884 115.408151,168.687896 C112.814233,170.342435 110.950363,172.905513 110.491928,175.085625 C110.446583,175.047625 110.409056,175.016353 110.383063,174.995029 C109.845553,174.55405 109.328137,174.172326 108.747304,173.805574 C105.070714,171.484084 100.335177,170.727941 93.9525404,172.31897 C92.9915926,171.203269 91.9783509,170.269576 90.9180861,169.510021 C86.832395,166.583103 82.4660943,166.399483 78.4448114,167.83848 C78.0103992,167.993932 77.6308316,168.150512 77.311576,168.296811 C76.8256541,167.763846 76.1046091,167.168631 75.1047044,166.589928 C72.6611447,165.175699 69.2612674,164.33995 64.7602332,164.33995 C55.8308468,164.33995 48.0389359,170.332756 44.3433184,178.335549 C40.6938742,176.557343 36.9899695,176.806134 33.5871153,178.315116 Z M71.5727621,117.236089 C70.5325073,117.875269 69.8289613,118.5259 69.4523566,118.99185 C69.1051902,119.421378 69.1719571,120.051013 69.6014847,120.398179 C70.0310123,120.745345 70.6606471,120.678578 71.0078135,120.249051 C71.0559475,120.189498 71.1783993,120.057158 71.3745405,119.875769 C71.7166558,119.559385 72.1319613,119.239867 72.6197969,118.940119 C76.0453756,116.835285 80.6723697,116.838349 86.6826888,120.490063 C87.1411788,120.76863 87.737798,120.635772 88.0347606,120.188977 C95.7870091,108.525335 103.715468,104.700727 116.227186,106.682389 C116.772671,106.768785 117.284912,106.39662 117.371309,105.851135 C117.457705,105.30565 117.08554,104.793408 116.540055,104.707012 C103.513644,102.643831 94.9165402,106.610989 86.8984532,118.297913 C80.6226375,114.744849 75.470594,114.84108 71.5727621,117.236089 Z M255.459491,130.464631 C254.393877,129.22348 253.204707,128.282804 251.913522,127.623493 C249.185862,126.230682 246.302861,126.180836 243.625442,126.921998 C243.398687,126.984768 243.192613,127.048002 243.008822,127.109206 C242.656418,126.742683 242.160023,126.353572 241.494149,125.981212 C239.706902,124.981775 237.147788,124.397408 233.683636,124.397408 C226.59316,124.397408 220.815369,128.66066 217.655179,135.299141 C214.719453,134.140096 211.786666,134.343979 209.101982,135.401972 C208.869081,135.493755 208.65318,135.585943 208.455196,135.676324 C208.378525,135.463683 208.290458,135.234372 208.190161,134.990433 C207.61184,133.583858 206.812675,132.178778 205.754789,130.864941 C202.730222,127.108595 198.242715,124.850491 192.097155,124.850491 C185.871419,124.850491 181.368886,127.950369 178.375966,133.049373 C177.342521,134.810043 176.565005,136.68875 176.004484,138.566836 C175.808213,139.224463 175.65278,139.836241 175.533728,140.387355 C175.461116,140.723487 175.416221,140.968748 175.394707,141.108265 C175.31054,141.654099 175.684795,142.164815 176.230629,142.248982 C176.776462,142.333149 177.287179,141.958894 177.371346,141.413061 C177.386961,141.311794 177.424707,141.105586 177.488634,140.809659 C177.597146,140.307343 177.739942,139.7453 177.920951,139.138811 C178.438371,137.405138 179.155606,135.672086 180.100794,134.061781 C182.761112,129.529427 186.652232,126.850491 192.097155,126.850491 C197.622251,126.850491 201.543372,128.823591 204.197002,132.119253 C205.126483,133.273618 205.831428,134.513041 206.340408,135.750968 C206.517618,136.181973 206.657263,136.580352 206.763143,136.934971 C206.824452,137.140312 206.859888,137.280073 206.873383,137.343094 C207.021236,138.033549 207.818739,138.35744 208.406147,137.965598 C208.456608,137.931937 208.574991,137.860078 208.755105,137.762468 C209.067316,137.59327 209.429488,137.422607 209.835265,137.262697 C212.324783,136.281616 215.031249,136.179256 217.712814,137.512407 C218.228034,137.768551 218.852598,137.538146 219.078035,137.008769 C221.83616,130.532083 227.138808,126.397408 233.683636,126.397408 C236.824206,126.397408 239.049272,126.905496 240.517999,127.726815 C241.313826,128.171846 241.67847,128.566239 241.770301,128.752609 C242.010426,129.239945 242.595714,129.446414 243.088468,129.217612 C243.269965,129.133337 243.639847,128.993225 244.159015,128.849509 C246.395871,128.230304 248.784935,128.27161 251.003986,129.404713 C252.235261,130.033432 253.366331,130.984468 254.377528,132.304751 C254.674969,132.693109 255.209704,132.809284 255.641472,132.579351 C258.715681,130.942218 264.595679,131.846352 267.30308,133.721977 C267.697667,133.995338 268.024864,134.289335 268.266164,134.599108 C268.699108,135.154909 269.55569,135.100711 269.915129,134.494775 C273.176928,128.996088 275.925256,127.39745 282.577685,129.223077 C283.066678,129.357272 283.578708,129.104231 283.769136,128.634275 C286.83103,121.077806 291.647733,118.304351 298.826513,118.42205 C299.378723,118.431103 299.833718,117.990788 299.842772,117.438577 C299.851825,116.886367 299.41151,116.431372 298.859299,116.422318 C291.160187,116.296089 285.678051,119.302854 282.257141,127.074342 C275.625621,125.464748 272.1784,127.257112 268.859418,132.398983 C265.825086,130.006891 259.460823,128.876883 255.459491,130.464631 Z M494.592451,24.7342191 C491.730593,27.1701887 489.952403,30.6158709 489.904407,33.2381797 C489.314045,32.8824606 488.572641,32.4475382 488.084503,32.2020869 C483.267969,29.780177 477.426602,29.5010479 469.743663,32.6221158 C463.608282,27.2017358 457.22971,26.8567483 451.484948,29.5723425 C450.674786,29.9553123 450.003473,30.3405825 449.486703,30.6796336 C449.031685,30.2929477 448.408504,29.8691151 447.598134,29.4554507 C444.477379,27.8624186 440.041682,27.2320318 434.092725,28.0681033 C423.586781,29.5446174 415.411079,37.9009147 412.440149,47.9155356 C408.097718,46.4582895 403.970654,47.1683186 400.304333,49.2536625 C399.587285,49.661508 398.973968,50.0708363 398.47265,50.4466947 C398.304335,50.1010536 398.102718,49.7143843 397.865579,49.2932955 C396.852672,47.4946673 395.525352,45.6990336 393.844265,44.0233929 C390.341273,40.5317483 385.783589,38.031463 380.057413,36.9563212 C372.86001,35.6049432 367.118765,36.9559851 362.767398,40.0499998 C360.846975,41.4155057 359.616403,42.7941235 359.007566,43.7518233 C358.711268,44.2178987 358.8489,44.835924 359.314976,45.1322214 C359.781051,45.4285189 360.399076,45.2908867 360.695374,44.8248113 C360.803419,44.6548571 361.05045,44.3236362 361.442484,43.8844391 C362.110656,43.1358815 362.936618,42.3837219 363.926373,41.6799618 C367.843531,38.8946894 373.035649,37.6728692 379.688344,38.9219733 C385.007327,39.9206609 389.205989,42.2239912 392.432348,45.4398989 C393.976839,46.9793865 395.195877,48.6285333 396.122916,50.2746855 C396.445508,50.8475147 396.707997,51.3773151 396.914634,51.8497205 C397.035256,52.125483 397.108777,52.3154003 397.139535,52.4050475 C397.37857,53.1017212 398.2632,53.3096901 398.787605,52.7924942 C398.886895,52.6945683 399.09996,52.5043748 399.417795,52.2525253 C399.958453,51.8241135 400.586722,51.3939271 401.293143,50.9921259 C404.760267,49.0200818 408.63461,48.4627164 412.730005,50.1587876 C413.292076,50.3915642 413.93003,50.0727198 414.081247,49.4834473 C416.5847,39.7278365 424.370671,31.454104 434.371071,30.0486394 C439.928886,29.2675394 443.950791,29.8391194 446.688826,31.2367871 C447.320924,31.55945 447.824343,31.8996465 448.211278,32.2331215 C448.425289,32.4175647 448.545208,32.5462175 448.582031,32.5946071 C448.92357,33.0434292 449.568493,33.1211738 450.006907,32.7663739 C450.098404,32.6923272 450.296581,32.5467536 450.592457,32.3532356 C451.097471,32.0229312 451.682958,31.6909372 452.339678,31.3805006 C457.547811,28.9185754 463.235556,29.2962742 468.861299,34.5212738 C469.149985,34.7893957 469.5692,34.8630187 469.931969,34.709306 C477.363636,31.5603585 482.767332,31.7670476 487.186029,33.9889122 C488.00647,34.4014566 489.840254,35.5469068 489.92244,35.5891408 C491.361656,36.3287269 492.152594,35.3569911 491.932639,33.791928 C491.659218,31.8464399 493.198178,28.547419 495.888795,26.2572071 C499.40858,23.2612204 504.398319,22.106847 510.645973,23.5120949 C511.174927,23.6310693 511.702341,23.3068596 511.835013,22.7811741 C514.411796,12.5711477 522.424,4.26508515 532.648723,2.82809417 C537.901954,2.08980062 542.883546,3.29007156 547.385478,5.75206071 C548.643562,6.44007419 549.765661,7.17688603 550.735351,7.91198117 C551.072495,8.16756111 551.365695,8.40386806 551.612938,8.61454266 C551.75724,8.7375012 551.851705,8.8221956 551.894344,8.86225444 C552.296858,9.24040946 552.929715,9.22066291 553.30787,8.81814928 C553.686025,8.41563564 553.666278,7.78277866 553.263764,7.40462364 C553.022273,7.1777461 552.577349,6.79862918 551.943569,6.31817823 C550.898229,5.52573437 549.694022,4.73500721 548.345101,3.99731762 C543.493034,1.34384839 538.094411,0.0430974771 532.370376,0.847558036 C521.592817,2.36224518 513.149925,10.8410703 510.144817,21.3657272 C503.717665,20.1446006 498.414827,21.480672 494.592451,24.7342191 Z M302.297104,55.8207075 C296.284935,51.8399302 293.037553,51.3167431 286.520348,54.0171669 C286.010128,54.2285779 285.767896,54.8135749 285.979307,55.3237943 C286.190718,55.8340137 286.775715,56.0762458 287.285935,55.8648349 C293.442706,53.3137578 296.009533,53.9037269 302.202262,58.1708918 C302.748769,58.5474679 303.503769,58.2969598 303.716766,57.6683811 C305.507834,52.3827399 311.380484,48.0006547 318.463731,47.5627622 C318.880818,47.5369775 319.237894,47.2545621 319.359065,46.8546317 C320.564745,42.8752374 322.732844,40.2270366 325.598861,38.641233 C327.000516,37.8656791 328.504956,37.3829023 330.034528,37.1397816 C331.069947,36.9752049 331.973963,36.9393812 332.664299,36.9752337 C332.741281,36.9792317 332.789972,36.9828976 332.808191,36.984667 C333.357889,37.038055 333.846787,36.635716 333.900175,36.0860178 C333.953563,35.5363195 333.551224,35.0474215 333.001526,34.9940335 C332.953999,34.9894176 332.875471,34.9835054 332.768029,34.9779255 C331.945674,34.9352166 330.903831,34.9765019 329.720575,35.1645768 C327.973587,35.4422552 326.249354,35.9955641 324.630576,36.8912548 C321.4769,38.636224 319.053091,41.4925925 317.654795,45.620335 C310.600963,46.2910504 304.690208,50.4946681 302.297104,55.8207075 Z M167.372456,204.978826 C167.817092,205.267983 168.201686,205.581269 168.512111,205.917508 C168.955078,206.397311 169.731578,206.330716 170.08638,205.782495 C173.815842,200.019927 176.85146,197.947583 182.039135,197.947583 C182.59142,197.947583 183.039135,197.499867 183.039135,196.947583 C183.039135,196.395298 182.59142,195.947583 182.039135,195.947583 C176.401796,195.947583 172.864612,198.157496 169.053173,203.72485 C168.838902,204.037834 168.623765,204.36143 168.407338,204.695841 L169.981607,204.560828 C169.710123,204.266768 169.398832,203.987992 169.053173,203.72485 C165.175527,200.772884 156.972691,199.788285 152.120587,201.263679 C148.510268,196.843452 141.517506,194.451438 136.407039,197.064071 C135.30167,196.102394 134.053182,195.35876 132.689942,194.814134 C129.991117,193.735931 127.169189,193.517787 124.659829,193.783525 C124.317511,193.819776 124.067098,193.857001 123.922652,193.883904 C123.379704,193.985027 123.021535,194.50715 123.122658,195.050098 C123.223782,195.593046 123.745905,195.951216 124.288853,195.850092 C124.383424,195.832478 124.582212,195.802928 124.870449,195.772404 C127.084208,195.53797 129.597116,195.732225 131.947948,196.671402 C133.307405,197.214517 134.522153,197.983499 135.562432,199.005938 C135.891523,199.329386 136.399198,199.385664 136.79114,199.142146 C141.146508,196.43611 147.913782,198.799679 150.952859,203.025718 C151.218323,203.394862 151.699404,203.53845 152.123771,203.375199 C156.060586,201.860731 163.730585,202.610434 167.372456,204.978826 Z M639.960515,86.5557647 C634.661114,84.6658132 629.308386,85.2045232 624.342864,87.2542698 C623.368175,87.6566175 622.489605,88.0882249 621.719916,88.5212118 C621.251395,88.7847778 620.918417,88.9937545 620.733978,89.1205009 C620.278808,89.4332928 620.163387,90.0558489 620.476179,90.5110188 C620.788971,90.9661888 621.411527,91.081609 621.866697,90.7688171 C622.003498,90.6748077 622.286077,90.4974616 622.700503,90.2643268 C623.402394,89.8694792 624.208945,89.473252 625.105993,89.1029541 C629.855018,87.1425766 634.951099,86.6960801 639.936831,88.6843125 C640.366453,88.855639 640.857509,88.7099838 641.12423,88.3321107 C645.834508,81.65888 658.631283,80.6827773 666.429572,85.5781313 C666.794169,85.8070064 667.264324,85.7768653 667.596711,85.5033073 C675.338495,79.1317399 684.118788,76.950886 693.614237,79.387989 C694.149184,79.5252883 694.694146,79.2029319 694.831446,78.6679858 C694.968745,78.1330397 694.646388,77.5880771 694.111442,77.4507777 C684.204637,74.908096 674.96739,77.0910338 666.876779,83.5136344 C658.465694,78.6678645 645.52023,79.655264 639.960515,86.5557647 Z" id="Combined-Shape"></path>
                    </g>
                </g>
            </g>
        </g>
    </g>
</svg>