<?xml version="1.0" encoding="UTF-8" standalone="no"?>
<svg width="14px" height="12px" viewBox="0 0 14 12" version="1.1" xmlns="http://www.w3.org/2000/svg" xmlns:xlink="http://www.w3.org/1999/xlink">
    <!-- Generator: Sketch 41.2 (35397) - http://www.bohemiancoding.com/sketch -->
    <title>love</title>
    <desc>Created with Sketch.</desc>
    <defs></defs>
    <g id="Landing" stroke="none" stroke-width="1" fill="none" fill-rule="evenodd">
        <g id="Doable-landing" transform="translate(-510.000000, -2962.000000)" fill="#4A586A">
            <g id="Group-20" transform="translate(-24.000000, 2586.000000)">
                <g id="Group-14" transform="translate(400.000000, 371.000000)">
                    <path d="M141.151367,17 C141.119466,17 141.089844,16.9965821 141.0625,16.9897461 C141.035156,16.9829101 141.007813,16.9726563 140.980469,16.9589844 C140.962239,16.9498697 140.859701,16.8894862 140.672852,16.777832 C140.486002,16.6661778 140.243328,16.5100921 139.944824,16.3095703 C139.64632,16.1090485 139.307945,15.8652358 138.929688,15.578125 C138.55143,15.2910142 138.164064,14.9697283 137.767578,14.6142578 C137.530598,14.400064 137.307293,14.1858735 137.097656,13.9716797 C136.88802,13.7574859 136.68978,13.5432953 136.50293,13.3291016 C136.31608,13.1149078 136.141765,12.8995779 135.97998,12.6831055 C135.818196,12.466633 135.671225,12.2513032 135.539062,12.0371094 C135.365885,11.7636705 135.214356,11.4890964 135.084473,11.2133789 C134.954589,10.9376614 134.846355,10.6642266 134.759766,10.3930664 C134.673177,10.1219062 134.608236,9.85075005 134.564941,9.57958984 C134.521647,9.30842963 134.5,9.04069143 134.5,8.77636719 C134.5,8.27050528 134.596841,7.79427307 134.790527,7.34765625 C134.984213,6.90103943 135.247394,6.51139489 135.580078,6.17871094 C135.912762,5.84602698 136.301267,5.58284602 136.745605,5.38916016 C137.189944,5.19547429 137.667315,5.09863281 138.177734,5.09863281 C138.346355,5.09863281 138.518391,5.11458317 138.693848,5.14648438 C138.869304,5.17838558 139.043619,5.22509735 139.216797,5.28662109 C139.389975,5.34814484 139.562011,5.4233394 139.73291,5.51220703 C139.903809,5.60107466 140.06901,5.70475201 140.228516,5.82324219 C140.415366,5.95996162 140.586262,6.10921143 140.741211,6.27099609 C140.89616,6.43278076 141.032877,6.60025955 141.151367,6.7734375 C141.2653,6.60025955 141.400878,6.43278076 141.558105,6.27099609 C141.715333,6.10921143 141.887369,5.95996162 142.074219,5.82324219 C142.233725,5.70475201 142.397786,5.60107466 142.566406,5.51220703 C142.735027,5.4233394 142.905924,5.34814484 143.079102,5.28662109 C143.25228,5.22509735 143.426594,5.17838558 143.602051,5.14648438 C143.777507,5.11458317 143.951822,5.09863281 144.125,5.09863281 C144.630862,5.09863281 145.107094,5.19547429 145.553711,5.38916016 C146.000328,5.58284602 146.389972,5.84602698 146.722656,6.17871094 C147.05534,6.51139489 147.318521,6.90103943 147.512207,7.34765625 C147.705893,7.79427307 147.802734,8.27050528 147.802734,8.77636719 C147.802734,9.04069143 147.779948,9.30842963 147.734375,9.57958984 C147.688802,9.85075005 147.622722,10.1219062 147.536133,10.3930664 C147.449544,10.6642266 147.342449,10.9376614 147.214844,11.2133789 C147.087239,11.4890964 146.93685,11.7636705 146.763672,12.0371094 C146.626952,12.2513032 146.478842,12.466633 146.319336,12.6831055 C146.15983,12.8995779 145.986655,13.1149078 145.799805,13.3291016 C145.612955,13.5432953 145.413575,13.7574859 145.20166,13.9716797 C144.989745,14.1858735 144.767579,14.400064 144.535156,14.6142578 C144.13867,14.9697283 143.751304,15.2910142 143.373047,15.578125 C142.99479,15.8652358 142.656414,16.1090485 142.35791,16.3095703 C142.059406,16.5100921 141.815593,16.6661778 141.626465,16.777832 C141.437336,16.8894862 141.335938,16.9498697 141.322266,16.9589844 C141.294922,16.9726563 141.266439,16.9829101 141.236816,16.9897461 C141.207194,16.9965821 141.178711,17 141.151367,17 Z M138.177734,5.80273438 C137.767576,5.80273438 137.381349,5.88020756 137.019043,6.03515625 C136.656736,6.19010494 136.341147,6.40201688 136.072266,6.67089844 C135.803384,6.93977999 135.590333,7.25536928 135.433105,7.61767578 C135.275878,7.97998228 135.197266,8.36620889 135.197266,8.77636719 C135.197266,9.30957298 135.290689,9.82682041 135.477539,10.328125 C135.664389,10.8294296 135.903644,11.3068011 136.195312,11.7602539 C136.486981,12.2137067 136.811684,12.6363913 137.169434,13.0283203 C137.527183,13.4202494 137.87923,13.7711573 138.225586,14.0810547 C138.530926,14.3636082 138.835122,14.6222319 139.138184,14.8569336 C139.441245,15.0916353 139.722655,15.3001293 139.982422,15.4824219 C140.242189,15.6647145 140.473469,15.8208001 140.67627,15.9506836 C140.87907,16.0805671 141.037434,16.1796872 141.151367,16.2480469 C141.260743,16.1796872 141.416828,16.0805671 141.619629,15.9506836 C141.822429,15.8208001 142.054849,15.6647145 142.316895,15.4824219 C142.57894,15.3001293 142.86035,15.0916353 143.161133,14.8569336 C143.461916,14.6222319 143.767251,14.3636082 144.077148,14.0810547 C144.418947,13.7711573 144.769855,13.4202494 145.129883,13.0283203 C145.489911,12.6363913 145.815754,12.2137067 146.107422,11.7602539 C146.39909,11.3068011 146.637206,10.8294296 146.821777,10.328125 C147.006349,9.82682041 147.098633,9.30957298 147.098633,8.77636719 C147.098633,8.36620889 147.02116,7.97998228 146.866211,7.61767578 C146.711262,7.25536928 146.498211,6.93977999 146.227051,6.67089844 C145.955891,6.40201688 145.640301,6.19010494 145.280273,6.03515625 C144.920246,5.88020756 144.535158,5.80273438 144.125,5.80273438 C143.828775,5.80273438 143.53825,5.85742133 143.253418,5.96679688 C142.968586,6.07617242 142.706544,6.21972567 142.467285,6.39746094 C142.228026,6.5751962 142.021811,6.77571503 141.848633,6.99902344 C141.675455,7.22233185 141.552409,7.44335828 141.479492,7.66210938 C141.456706,7.73046909 141.414551,7.78743467 141.353027,7.83300781 C141.291504,7.87858096 141.224284,7.90136719 141.151367,7.90136719 C141.073893,7.90136719 141.004395,7.87858096 140.942871,7.83300781 C140.881347,7.78743467 140.839193,7.73046909 140.816406,7.66210938 C140.743489,7.44335828 140.620444,7.22233185 140.447266,6.99902344 C140.274088,6.77571503 140.069012,6.5751962 139.832031,6.39746094 C139.595051,6.21972567 139.334149,6.07617242 139.049316,5.96679688 C138.764484,5.85742133 138.47396,5.80273438 138.177734,5.80273438 Z" id="love"></path>
                </g>
            </g>
        </g>
    </g>
</svg>