<?xml version="1.0" encoding="UTF-8" standalone="no"?>
<svg width="3px" height="15px" viewBox="0 0 3 15" version="1.1" xmlns="http://www.w3.org/2000/svg" xmlns:xlink="http://www.w3.org/1999/xlink">
    <!-- Generator: Sketch 41.2 (35397) - http://www.bohemiancoding.com/sketch -->
    <title>more</title>
    <desc>Created with Sketch.</desc>
    <defs></defs>
    <g id="Page-1" stroke="none" stroke-width="1" fill="none" fill-rule="evenodd">
        <g id="Tasks" transform="translate(-289.000000, -109.000000)" fill="#1384FF">
            <g id="Group-5" transform="translate(31.000000, 86.000000)">
                <g id="Group-3" transform="translate(20.000000, 18.000000)">
                    <g id="Group-8" transform="translate(238.000000, 5.000000)">
                        <path d="M1.5,3 C2.32842712,3 3,2.32842712 3,1.5 C3,0.671572875 2.32842712,0 1.5,0 C0.671572875,0 0,0.671572875 0,1.5 C0,2.32842712 0.671572875,3 1.5,3 Z M1.5,9 C2.32842712,9 3,8.32842712 3,7.5 C3,6.67157288 2.32842712,6 1.5,6 C0.671572875,6 0,6.67157288 0,7.5 C0,8.32842712 0.671572875,9 1.5,9 Z M1.5,15 C2.32842712,15 3,14.3284271 3,13.5 C3,12.6715729 2.32842712,12 1.5,12 C0.671572875,12 0,12.6715729 0,13.5 C0,14.3284271 0.671572875,15 1.5,15 Z" id="more"></path>
                    </g>
                </g>
            </g>
        </g>
    </g>
</svg>