<?xml version="1.0" encoding="UTF-8" standalone="no"?>
<svg width="31px" height="38px" viewBox="0 0 31 38" version="1.1" xmlns="http://www.w3.org/2000/svg" xmlns:xlink="http://www.w3.org/1999/xlink">
    <!-- Generator: Sketch 41.2 (35397) - http://www.bohemiancoding.com/sketch -->
    <title>note</title>
    <desc>Created with Sketch.</desc>
    <defs></defs>
    <g id="Page-1" stroke="none" stroke-width="1" fill="none" fill-rule="evenodd">
        <g id="Notes" transform="translate(-46.000000, -150.000000)" fill="#1384FF">
            <g id="Group-2" transform="translate(30.000000, 148.000000)">
                <path d="M41.0039062,36.0078125 L21.0039062,36.0078125 C20.7304674,36.0078125 20.4960947,35.9101572 20.3007812,35.7148438 C20.1054678,35.5195303 20.0078125,35.2786473 20.0078125,34.9921875 C20.0078125,34.7187486 20.1054678,34.484376 20.3007812,34.2890625 C20.4960947,34.093749 20.7304674,33.9960938 21.0039062,33.9960938 L41.0039062,33.9960938 C41.2773451,33.9960938 41.5117178,34.093749 41.7070312,34.2890625 C41.9023447,34.484376 42,34.7187486 42,34.9921875 C42,35.2786473 41.9023447,35.5195303 41.7070312,35.7148438 C41.5117178,35.9101572 41.2773451,36.0078125 41.0039062,36.0078125 Z M45.0078125,6.0078125 C45.2812514,6.0078125 45.515624,6.10546777 45.7109375,6.30078125 C45.906251,6.49609473 46.0039062,6.73046738 46.0039062,7.00390625 L46.0039062,37.0039062 C46.0039062,37.8242229 45.7109404,38.5273408 45.125,39.1132812 C44.5390596,39.6992217 43.8294312,39.9921875 42.9960938,39.9921875 L21.0039062,39.9921875 C20.3137986,39.9921875 19.6660187,39.8619805 19.0605469,39.6015625 C18.4550751,39.3411445 17.9244814,38.9863304 17.46875,38.5371094 C17.0130186,38.0878884 16.6549492,37.5572947 16.3945312,36.9453125 C16.1341133,36.3333303 16.0039062,35.6822951 16.0039062,34.9921875 L16.0039062,4.9921875 C16.0039062,4.1718709 16.2968721,3.46875293 16.8828125,2.8828125 C17.4687529,2.29687207 18.1718709,2.00390625 18.9921875,2.00390625 L38.9921875,2.00390625 C39.825525,2.00390625 40.5351533,2.29687207 41.1210938,2.8828125 C41.7070342,3.46875293 42,4.1718709 42,4.9921875 L42,28.9960938 C42,29.8294312 41.7070342,30.5390596 41.1210938,31.125 C40.5351533,31.7109404 39.825525,32.0039062 38.9921875,32.0039062 L21.0039062,32.0039062 C20.1705688,32.0039062 19.4609404,32.2968721 18.875,32.8828125 C18.2890596,33.4687529 17.9960938,34.1718709 17.9960938,34.9921875 C17.9960938,35.825525 18.2890596,36.5351533 18.875,37.1210938 C19.4609404,37.7070342 20.1705688,38 21.0039062,38 L42.9960938,38 C43.2695326,38 43.5039053,37.9023447 43.6992188,37.7070312 C43.8945322,37.5117178 43.9921875,37.2773451 43.9921875,37.0039062 L43.9921875,7.00390625 C43.9921875,6.73046738 44.0898428,6.49609473 44.2851562,6.30078125 C44.4804697,6.10546777 44.7213527,6.0078125 45.0078125,6.0078125 Z M23.9921875,16.59375 L25.3007812,15.2851562 C25.4960947,15.0898428 25.7304674,14.9921875 26.0039062,14.9921875 C26.2773451,14.9921875 26.5117178,15.0898428 26.7070312,15.2851562 L27.9960938,16.59375 L27.9960938,3.99609375 L23.9921875,3.99609375 L23.9921875,16.59375 Z M17.9960938,31.0078125 C18.4127625,30.6953109 18.8782526,30.4479176 19.3925781,30.265625 C19.9069036,30.0833324 20.4440076,29.9921875 21.0039062,29.9921875 L38.9921875,29.9921875 C39.2786473,29.9921875 39.5195303,29.8945322 39.7148438,29.6992188 C39.9101572,29.5039053 40.0078125,29.2695326 40.0078125,28.9960938 L40.0078125,4.9921875 C40.0078125,4.71874863 39.9101572,4.48437598 39.7148438,4.2890625 C39.5195303,4.09374902 39.2786473,3.99609375 38.9921875,3.99609375 L30.0078125,3.99609375 L30.0078125,18.9960938 C30.0078125,19.2044281 29.9492193,19.3932283 29.8320312,19.5625 C29.7148432,19.7317717 29.5651051,19.8554684 29.3828125,19.9335938 L29.1875,19.9726562 C29.1223955,19.9856771 29.057292,19.9921875 28.9921875,19.9921875 C28.8619785,19.9921875 28.7382818,19.9694013 28.6210938,19.9238281 C28.5039057,19.878255 28.3932297,19.8033859 28.2890625,19.6992188 L26.0039062,17.4140625 L23.6992188,19.6992188 C23.5559889,19.8424486 23.3867197,19.9335936 23.1914062,19.9726562 C22.9960928,20.0117189 22.8072926,19.9986982 22.625,19.9335938 C22.4296865,19.8554684 22.2766933,19.7317717 22.1660156,19.5625 C22.055338,19.3932283 22,19.2044281 22,18.9960938 L22,3.99609375 L18.9921875,3.99609375 C18.7187486,3.99609375 18.484376,4.09374902 18.2890625,4.2890625 C18.093749,4.48437598 17.9960938,4.71874863 17.9960938,4.9921875 L17.9960938,31.0078125 Z" id="note"></path>
            </g>
        </g>
    </g>
</svg>