<?xml version="1.0" encoding="UTF-8" standalone="no"?>
<svg width="36px" height="58px" viewBox="0 0 36 58" version="1.1" xmlns="http://www.w3.org/2000/svg" xmlns:xlink="http://www.w3.org/1999/xlink">
    <!-- Generator: Sketch 41.2 (35397) - http://www.bohemiancoding.com/sketch -->
    <title>scrolldown</title>
    <desc>Created with Sketch.</desc>
    <defs></defs>
    <g id="Landing" stroke="none" stroke-width="1" fill="none" fill-rule="evenodd">
        <g id="Doable-landing" transform="translate(-702.000000, -679.000000)">
            <g id="scrolldown" transform="translate(702.000000, 679.000000)">
                <rect id="Rectangle-14" fill="#FFFFFF" x="0" y="0" width="36" height="57"></rect>
                <path d="M6,13.997455 L6,30.002545 C6,36.6270867 11.3733082,42 18,42 C24.6285737,42 30,36.6290997 30,30.002545 L30,13.997455 C30,7.37291331 24.6266918,2 18,2 C11.3714263,2 6,7.37090033 6,13.997455 Z M4,13.997455 C4,6.26687408 10.2663135,0 18,0 C25.7319865,0 32,6.26906895 32,13.997455 L32,30.002545 C32,37.7331259 25.7336865,44 18,44 C10.2680135,44 4,37.730931 4,30.002545 L4,13.997455 Z" id="Rectangle-13" fill="#4A586A"></path>
                <circle id="Oval-2" fill="#4A586A" cx="18" cy="31" r="3"></circle>
                <path d="M13.0502525,50.2928932 C12.6597282,49.9023689 12.0265633,49.9023689 11.636039,50.2928932 C11.2455147,50.6834175 11.2455147,51.3165825 11.636039,51.7071068 L17.2928932,57.363961 C17.6834175,57.7544853 18.3165825,57.7544853 18.7071068,57.363961 L24.363961,51.7071068 C24.7544853,51.3165825 24.7544853,50.6834175 24.363961,50.2928932 C23.9734367,49.9023689 23.3402718,49.9023689 22.9497475,50.2928932 L18,55.2426407 L13.0502525,50.2928932 Z" id="Path-25" fill="#4A586A"></path>
            </g>
        </g>
    </g>
</svg>