<?xml version="1.0" encoding="UTF-8" standalone="no"?>
<svg width="14px" height="15px" viewBox="0 0 14 15" version="1.1" xmlns="http://www.w3.org/2000/svg" xmlns:xlink="http://www.w3.org/1999/xlink">
    <!-- Generator: Sketch 41.2 (35397) - http://www.bohemiancoding.com/sketch -->
    <title>user</title>
    <desc>Created with Sketch.</desc>
    <defs></defs>
    <g id="Page-1" stroke="none" stroke-width="1" fill="none" fill-rule="evenodd" opacity="0.5">
        <g id="Tasks" transform="translate(-1329.000000, -27.000000)" fill="#007AFF">
            <g id="Group-15" transform="translate(31.000000, 20.000000)">
                <g id="Group" transform="translate(1298.000000, 5.000000)">
                    <path d="M6.65136719,10.4013672 C6.1181614,10.4013672 5.61800364,10.2999685 5.15087891,10.097168 C4.68375417,9.89436748 4.27588065,9.61865409 3.92724609,9.27001953 C3.57861154,8.92138498 3.30403746,8.51351145 3.10351562,8.04638672 C2.90299379,7.57926199 2.80273437,7.08138285 2.80273437,6.55273438 C2.80273437,6.01952858 2.90299379,5.51937083 3.10351562,5.05224609 C3.30403746,4.58512136 3.57861154,4.17724784 3.92724609,3.82861328 C4.27588065,3.47997873 4.68375417,3.20426534 5.15087891,3.00146484 C5.61800364,2.79866435 6.1181614,2.69726562 6.65136719,2.69726562 C7.18001566,2.69726562 7.6778948,2.79866435 8.14501953,3.00146484 C8.61214426,3.20426534 9.02001779,3.47997873 9.36865234,3.82861328 C9.7172869,4.17724784 9.99300029,4.58512136 10.1958008,5.05224609 C10.3986013,5.51937083 10.5,6.01952858 10.5,6.55273438 C10.5,7.08138285 10.3986013,7.57926199 10.1958008,8.04638672 C9.99300029,8.51351145 9.7172869,8.92138498 9.36865234,9.27001953 C9.02001779,9.61865409 8.61214426,9.89436748 8.14501953,10.097168 C7.6778948,10.2999685 7.18001566,10.4013672 6.65136719,10.4013672 Z M6.65136719,3.40136719 C6.21842231,3.40136719 5.81054879,3.48339762 5.42773438,3.64746094 C5.04491996,3.81152426 4.71110168,4.03596863 4.42626953,4.32080078 C4.14143738,4.60563293 3.9158537,4.93945121 3.74951172,5.32226562 C3.58316974,5.70508004 3.5,6.11523219 3.5,6.55273438 C3.5,6.98567925 3.58316974,7.39355277 3.74951172,7.77636719 C3.9158537,8.1591816 4.14143738,8.49299988 4.42626953,8.77783203 C4.71110168,9.06266418 5.04491996,9.28710855 5.42773438,9.45117188 C5.81054879,9.6152352 6.21842231,9.69726562 6.65136719,9.69726562 C7.08431206,9.69726562 7.49218559,9.6152352 7.875,9.45117188 C8.25781441,9.28710855 8.59163269,9.06266418 8.87646484,8.77783203 C9.161297,8.49299988 9.38688068,8.1591816 9.55322266,7.77636719 C9.71956463,7.39355277 9.80273438,6.98567925 9.80273438,6.55273438 C9.80273438,6.11523219 9.71956463,5.70508004 9.55322266,5.32226562 C9.38688068,4.93945121 9.161297,4.60563293 8.87646484,4.32080078 C8.59163269,4.03596863 8.25781441,3.81152426 7.875,3.64746094 C7.49218559,3.48339762 7.08431206,3.40136719 6.65136719,3.40136719 Z M12.25,16.6972656 L1.05273438,16.6972656 C0.76106625,16.6972656 0.512696338,16.5947276 0.307617188,16.3896484 C0.102538037,16.1845693 0,15.938478 0,15.6513672 C0,15.6376952 0.00455724609,15.5625007 0.013671875,15.4257812 C0.0227865039,15.2890618 0.0546872266,15.1136078 0.109375,14.8994141 C0.164062773,14.6852203 0.249511138,14.4425469 0.365722656,14.1713867 C0.481934175,13.9002265 0.644855723,13.6233738 0.854492188,13.3408203 C0.982096992,13.176757 1.11881437,13.0206713 1.26464844,12.8725586 C1.4104825,12.7244459 1.56656818,12.5854499 1.73291016,12.4555664 C1.89925213,12.3256829 2.07698473,12.2049159 2.26611328,12.0932617 C2.45524183,11.9816075 2.65462135,11.8802088 2.86425781,11.7890625 C3.11946742,11.6751296 3.39062356,11.5748702 3.67773438,11.4882812 C3.96484519,11.4016923 4.26676274,11.3299156 4.58349609,11.2729492 C4.90022945,11.2159828 5.23062979,11.172689 5.57470703,11.1430664 C5.91878427,11.1134439 6.2776674,11.0986328 6.65136719,11.0986328 C7.02050966,11.0986328 7.37825348,11.1134439 7.72460938,11.1430664 C8.07096527,11.172689 8.40136562,11.2159828 8.71582031,11.2729492 C9.03027501,11.3299156 9.33105325,11.4016923 9.61816406,11.4882812 C9.90527487,11.5748702 10.176431,11.6751296 10.4316406,11.7890625 C10.6412771,11.8802088 10.8406566,11.9816075 11.0297852,12.0932617 C11.2189137,12.2049159 11.3977856,12.3256829 11.5664062,12.4555664 C11.7350269,12.5854499 11.8922519,12.7244459 12.0380859,12.8725586 C12.18392,13.0206713 12.3183588,13.176757 12.4414062,13.3408203 C12.6556,13.6233738 12.8196609,13.9002265 12.9335938,14.1713867 C13.0475266,14.4425469 13.1318357,14.6852203 13.1865234,14.8994141 C13.2412112,15.1136078 13.2742512,15.2890618 13.2856445,15.4257812 C13.2970378,15.5625007 13.3027344,15.6376952 13.3027344,15.6513672 C13.3027344,15.938478 13.2001963,16.1845693 12.9951172,16.3896484 C12.790038,16.5947276 12.5416681,16.6972656 12.25,16.6972656 Z M6.65136719,11.8027344 C6.04068705,11.8027344 5.47103129,11.8437496 4.94238281,11.9257812 C4.41373434,12.0078129 3.93066625,12.1297192 3.49316406,12.2915039 C3.05566188,12.4532886 2.66487802,12.6549467 2.32080078,12.8964844 C1.97672354,13.138022 1.68392048,13.4160141 1.44238281,13.7304688 C1.26009023,13.9674491 1.11881561,14.1998687 1.01855469,14.4277344 C0.91829377,14.6556001 0.844238521,14.8595369 0.796386719,15.0395508 C0.748534917,15.2195647 0.720052129,15.3653966 0.7109375,15.4770508 C0.701822871,15.588705 0.697265625,15.6468099 0.697265625,15.6513672 C0.697265625,15.7470708 0.731444971,15.8291012 0.799804688,15.8974609 C0.868164404,15.9658207 0.952473457,16 1.05273438,16 L12.25,16 C12.3457036,16 12.427734,15.9658207 12.4960938,15.8974609 C12.5644535,15.8291012 12.5986328,15.7470708 12.5986328,15.6513672 C12.5986328,15.6468099 12.5940756,15.588705 12.5849609,15.4770508 C12.5758463,15.3653966 12.5473635,15.2195647 12.4995117,15.0395508 C12.4516599,14.8595369 12.378744,14.6556001 12.2807617,14.4277344 C12.1827795,14.1998687 12.0426441,13.9674491 11.8603516,13.7304688 C11.6188139,13.4160141 11.3260108,13.138022 10.9819336,12.8964844 C10.6378564,12.6549467 10.2459332,12.4532886 9.80615234,12.2915039 C9.3663715,12.1297192 8.88330341,12.0078129 8.35693359,11.9257812 C7.83056377,11.8437496 7.26204732,11.8027344 6.65136719,11.8027344 Z" id="user"></path>
                </g>
            </g>
        </g>
    </g>
</svg>